<svg width="26" height="26" viewBox="0 0 26 26" fill="none" xmlns="http://www.w3.org/2000/svg">
<path d="M13 10.8327V2.16602" stroke="#4D2ABB" stroke-width="2" stroke-linecap="round" stroke-linejoin="round"/>
<path d="M17.3332 6.5L12.9998 10.8333L8.6665 6.5" stroke="#4D2ABB" stroke-width="2" stroke-linecap="round" stroke-linejoin="round"/>
<path d="M2.1665 16.2493C2.8165 16.791 3.4665 17.3327 4.87484 17.3327C7.58317 17.3327 7.58317 15.166 10.2915 15.166C13.1082 15.166 12.8915 17.3327 15.7082 17.3327C18.4165 17.3327 18.4165 15.166 21.1248 15.166C22.5332 15.166 23.1832 15.7077 23.8332 16.2493" stroke="#4D2ABB" stroke-width="2" stroke-linecap="round" stroke-linejoin="round"/>
<path d="M2.1665 22.7493C2.8165 23.291 3.4665 23.8327 4.87484 23.8327C7.58317 23.8327 7.58317 21.666 10.2915 21.666C13.1082 21.666 12.8915 23.8327 15.7082 23.8327C18.4165 23.8327 18.4165 21.666 21.1248 21.666C22.5332 21.666 23.1832 22.2077 23.8332 22.7493" stroke="#4D2ABB" stroke-width="2" stroke-linecap="round" stroke-linejoin="round"/>
</svg>
