<svg width="52" height="52" viewBox="0 0 52 52" fill="none" xmlns="http://www.w3.org/2000/svg">
<path d="M43.3335 43.3333C44.4828 43.3333 45.585 42.8768 46.3976 42.0641C47.2103 41.2515 47.6668 40.1493 47.6668 39V17.3333C47.6668 16.1841 47.2103 15.0819 46.3976 14.2692C45.585 13.4565 44.4828 13 43.3335 13H26.2168C25.4921 13.0071 24.7772 12.8323 24.1375 12.4917C23.4978 12.151 22.9537 11.6553 22.5552 11.05L20.8002 8.45C20.4056 7.85085 19.8684 7.35904 19.2369 7.01869C18.6054 6.67835 17.8992 6.50012 17.1818 6.5H8.66683C7.51756 6.5 6.41536 6.95655 5.6027 7.7692C4.79004 8.58186 4.3335 9.68406 4.3335 10.8333V39C4.3335 40.1493 4.79004 41.2515 5.6027 42.0641C6.41536 42.8768 7.51756 43.3333 8.66683 43.3333H43.3335Z" stroke="#4D2ABB" stroke-opacity="0.3" stroke-width="3.2" stroke-linecap="round" stroke-linejoin="round"/>
<path d="M26 21.666V34.666" stroke="#4D2ABB" stroke-width="3.2" stroke-linecap="round" stroke-linejoin="round"/>
<path d="M32.5 28.166L26 34.666L19.5 28.166" stroke="#4D2ABB" stroke-width="3.2" stroke-linecap="round" stroke-linejoin="round"/>
</svg>
