<svg width="12" height="12" viewBox="0 0 12 12" fill="none" xmlns="http://www.w3.org/2000/svg">
<circle cx="6" cy="6" r="5.4" stroke="#CCCCCC" stroke-width="1.2"/>
<path d="M5.89404 5.03125C6.16728 5.0313 6.37846 5.10479 6.52686 5.25098C6.67512 5.39712 6.74944 5.58616 6.74951 5.81836C6.74951 5.86708 6.7442 5.95353 6.73389 6.0752C6.72356 6.19706 6.70441 6.30795 6.67725 6.40918L6.39307 7.51953C6.37002 7.60754 6.34965 7.70906 6.33154 7.82324C6.3126 7.93757 6.30322 8.02403 6.30322 8.08398C6.30326 8.23006 6.33373 8.32945 6.39307 8.38379C6.45286 8.43623 6.55641 8.46288 6.70361 8.46289C6.77248 8.46289 6.85053 8.44917 6.93799 8.4248C7.02462 8.39677 7.08739 8.37221 7.12646 8.35352L7.05127 8.69727C6.82379 8.79476 6.64203 8.87134 6.50635 8.92188C6.3707 8.97439 6.21253 9.00098 6.03271 9.00098C5.75795 9.0009 5.5436 8.92525 5.39111 8.77734C5.23813 8.6292 5.16162 8.43978 5.16162 8.21289C5.16163 8.12307 5.16668 8.03311 5.17822 7.93945C5.18975 7.84761 5.20834 7.74219 5.23389 7.62598L5.51807 6.5127C5.54361 6.40778 5.5652 6.30654 5.58252 6.21094C5.59981 6.11546 5.60789 6.02894 5.60791 5.9502C5.60791 5.80794 5.58144 5.70863 5.52881 5.65234C5.47562 5.59797 5.3746 5.56739 5.22412 5.56738C5.15116 5.56738 5.07509 5.5802 4.99756 5.60645C4.92091 5.63267 4.85414 5.65533 4.79932 5.67969L4.87549 5.33691C5.06169 5.25263 5.23993 5.17918 5.40967 5.12109C5.57998 5.06108 5.74227 5.03125 5.89404 5.03125ZM6.52393 3C6.70984 3 6.86951 3.06924 7.00146 3.20605C7.13341 3.34288 7.19969 3.50807 7.19971 3.70117C7.19971 3.89429 7.13342 4.05935 7.00146 4.19434C6.8695 4.33121 6.70989 4.39844 6.52393 4.39844C6.33756 4.39844 6.17721 4.33122 6.04443 4.19434C5.91094 4.05936 5.84521 3.8942 5.84521 3.70117C5.84523 3.50812 5.91089 3.34287 6.04443 3.20605C6.17721 3.06917 6.33756 3 6.52393 3Z" fill="#CCCCCC"/>
</svg>
