<svg width="26" height="26" viewBox="0 0 26 26" fill="none" xmlns="http://www.w3.org/2000/svg">
<path d="M10.8335 2.16602V10.8327" stroke="#4D2ABB" stroke-width="2" stroke-linecap="round" stroke-linejoin="round"/>
<path d="M13.8665 23.4C14.1412 23.606 14.4608 23.7438 14.7992 23.802C15.1375 23.8602 15.4848 23.8371 15.8125 23.7348C16.1402 23.6324 16.4389 23.4536 16.684 23.2132C16.929 22.9728 17.1134 22.6775 17.222 22.3518C17.3305 22.0261 17.3602 21.6793 17.3084 21.3399C17.2566 21.0005 17.1249 20.6783 16.9242 20.3998C16.7235 20.1213 16.4594 19.8945 16.1538 19.738C15.8482 19.5816 15.5098 19.5 15.1665 19.5H2.1665" stroke="#4D2ABB" stroke-width="2" stroke-linecap="round" stroke-linejoin="round"/>
<path d="M18.9582 10.8333C19.2352 10.464 19.602 10.1716 20.0237 9.98393C20.4455 9.79625 20.9083 9.71949 21.3681 9.76094C21.8278 9.8024 22.2694 9.96071 22.6508 10.2208C23.0322 10.4809 23.3408 10.8342 23.5472 11.2471C23.7537 11.66 23.8512 12.1189 23.8304 12.5801C23.8097 13.0413 23.6714 13.4895 23.4287 13.8822C23.186 14.2749 22.8469 14.599 22.4437 14.8239C22.0405 15.0487 21.5865 15.1667 21.1248 15.1667H2.1665" stroke="#4D2ABB" stroke-width="2" stroke-linecap="round" stroke-linejoin="round"/>
<path d="M6.5 6.5L10.8333 10.8333L15.1667 6.5" stroke="#4D2ABB" stroke-width="2" stroke-linecap="round" stroke-linejoin="round"/>
</svg>
