<svg width="28" height="28" viewBox="0 0 28 28" fill="none" xmlns="http://www.w3.org/2000/svg">
<path d="M0 4C0 1.79086 1.79086 0 4 0H24C26.2091 0 28 1.79086 28 4V24C28 26.2091 26.2091 28 24 28H4C1.79086 28 0 26.2091 0 24V4Z" fill="#4D2ABB" fill-opacity="0.15"/>
<path d="M14.1572 18.1885C16.1117 18.3242 16.9949 20.7155 15.6162 22.1074C14.7009 23.0312 13.2811 23.0292 12.3652 22.1045C11.8021 21.5357 11.5543 20.5873 11.792 19.8486C12.0893 18.9254 12.7473 18.3564 13.707 18.1885C13.76 18.1792 13.8397 18.1772 13.9072 18.1777C13.9831 18.1783 14.0721 18.1826 14.1572 18.1885ZM14.1621 19.7295C14.0134 19.6915 13.8742 19.6961 13.7764 19.7314C13.4088 19.8648 13.1797 20.2416 13.2236 20.5654C13.3152 21.2382 14.1042 21.4874 14.5439 21.0234C14.838 20.7131 14.8361 20.2504 14.5273 19.9297C14.4417 19.8408 14.3098 19.7673 14.1621 19.7295ZM13.9873 5.19922C18.5179 5.19878 20.7959 5.19898 21.957 5.20898C22.5355 5.21397 22.8439 5.2215 23.0166 5.2334C23.1017 5.23926 23.1669 5.24682 23.2197 5.25977C23.2854 5.27586 23.325 5.29884 23.3535 5.31641C23.9335 5.67335 23.7428 6.5418 23.1094 6.68945C23.0833 6.69552 23.0559 6.69789 23.0508 6.69824C23.0377 6.69915 23.022 6.6995 23.0049 6.7002C22.9699 6.7016 22.9222 6.70283 22.8633 6.7041C22.745 6.70665 22.5761 6.70965 22.3613 6.71191C21.9315 6.71645 21.314 6.72031 20.5391 6.72363C18.9888 6.73027 16.8065 6.7341 14.2314 6.73438H5.85449C5.9715 7.54686 6.21174 8.26728 6.58691 8.93359C6.88092 9.45567 7.15076 9.80667 7.62109 10.2764C8.34102 10.9952 9.00819 11.3944 10.1826 11.7939C11.2102 12.1435 11.7127 12.4392 12.2979 13.0654C12.8397 13.6453 13.0498 14.0661 13.5098 15.3965L13.7158 15.9902L13.9795 15.998C14.1124 16.0015 14.2038 15.9992 14.2656 15.9961C14.2789 15.9612 14.2957 15.919 14.3135 15.8701C14.3645 15.7294 14.4295 15.5403 14.4971 15.3389C14.7992 14.4379 15.0593 13.8719 15.3955 13.416C15.9803 12.6229 16.6882 12.1604 17.8584 11.7725C18.828 11.4511 19.5226 11.0598 20.168 10.4785C20.7169 9.9841 21.1102 9.4751 21.5322 8.70605C21.6395 8.51048 21.7443 8.35128 21.8682 8.24219C22.0059 8.12092 22.1575 8.0701 22.3271 8.07031C22.7337 8.07098 23.0848 8.42938 23.085 8.83398C23.085 8.89057 23.0691 8.94831 23.0586 8.9834C23.0457 9.02648 23.0287 9.07501 23.0088 9.125C22.9688 9.22558 22.9145 9.34438 22.8545 9.45996C21.9199 11.2589 20.3742 12.5592 18.4102 13.2041C17.789 13.408 17.5591 13.5125 17.3105 13.6826C16.8548 13.9946 16.5166 14.3926 16.3096 14.8535C16.2517 14.9825 16.0513 15.5327 15.8633 16.082C15.6786 16.6215 15.5611 16.9507 15.4463 17.1465C15.3843 17.2521 15.3124 17.3382 15.2148 17.4004C15.1202 17.4608 15.022 17.4856 14.9385 17.502C14.8529 17.5186 14.7025 17.5277 14.543 17.5332C14.3758 17.539 14.1758 17.5407 13.9775 17.54C13.7793 17.5394 13.5801 17.5363 13.415 17.5293C13.259 17.5227 13.1097 17.5122 13.0264 17.4941C12.9395 17.4753 12.8552 17.4502 12.7773 17.4053C12.6956 17.3581 12.6354 17.2975 12.584 17.2295C12.5624 17.2009 12.5445 17.167 12.5332 17.1445C12.5197 17.1177 12.5054 17.0856 12.4902 17.0508C12.4596 16.9808 12.4227 16.8911 12.3828 16.7881C12.3027 16.5814 12.2062 16.3149 12.1113 16.0361C11.7149 14.8707 11.5538 14.5408 11.2793 14.2236C11.0588 13.9689 10.8718 13.7996 10.6406 13.6572C10.4057 13.5125 10.1142 13.3884 9.67383 13.2402C8.98389 13.0081 8.34751 12.7206 7.8457 12.4102C5.77728 11.1304 4.41391 8.81475 4.30859 6.40039C4.29556 6.10159 4.29265 5.8791 4.33398 5.71289C4.35682 5.62106 4.39423 5.53871 4.45312 5.46582C4.50996 5.39553 4.57794 5.34615 4.64258 5.30566C4.70296 5.26785 4.76971 5.25572 4.81836 5.24902C4.87439 5.24132 4.95174 5.23514 5.05762 5.23047C5.27115 5.22106 5.63177 5.21449 6.24805 5.20996C7.48384 5.20087 9.76399 5.19966 13.9873 5.19922Z" fill="#4D2ABB" stroke="#4D2ABB" stroke-width="0.5"/>
</svg>
