<svg width="19" height="19" viewBox="0 0 19 19" fill="none" xmlns="http://www.w3.org/2000/svg">
<path d="M6.26667 11.4889V7.31111C6.26667 7.01519 6.36676 6.76713 6.56694 6.56694C6.76713 6.36676 7.01519 6.26667 7.31111 6.26667H11.4889C11.7848 6.26667 12.0329 6.36676 12.2331 6.56694C12.4332 6.76713 12.5333 7.01519 12.5333 7.31111V11.4889C12.5333 11.7848 12.4332 12.0329 12.2331 12.2331C12.0329 12.4332 11.7848 12.5333 11.4889 12.5333H7.31111C7.01519 12.5333 6.76713 12.4332 6.56694 12.2331C6.36676 12.0329 6.26667 11.7848 6.26667 11.4889ZM8.35556 10.4444H10.4444V8.35556H8.35556V10.4444ZM6.26667 17.7556V16.7111H4.17778C3.60333 16.7111 3.11157 16.5066 2.7025 16.0975C2.29343 15.6884 2.08889 15.1967 2.08889 14.6222V12.5333H1.04444C0.748519 12.5333 0.500463 12.4332 0.300278 12.2331C0.100093 12.0329 0 11.7848 0 11.4889C0 11.193 0.100093 10.9449 0.300278 10.7447C0.500463 10.5445 0.748519 10.4444 1.04444 10.4444H2.08889V8.35556H1.04444C0.748519 8.35556 0.500463 8.25546 0.300278 8.05528C0.100093 7.85509 0 7.60704 0 7.31111C0 7.01519 0.100093 6.76713 0.300278 6.56694C0.500463 6.36676 0.748519 6.26667 1.04444 6.26667H2.08889V4.17778C2.08889 3.60333 2.29343 3.11157 2.7025 2.7025C3.11157 2.29343 3.60333 2.08889 4.17778 2.08889H6.26667V1.04444C6.26667 0.748519 6.36676 0.500463 6.56694 0.300278C6.76713 0.100093 7.01519 0 7.31111 0C7.60704 0 7.85509 0.100093 8.05528 0.300278C8.25546 0.500463 8.35556 0.748519 8.35556 1.04444V2.08889H10.4444V1.04444C10.4444 0.748519 10.5445 0.500463 10.7447 0.300278C10.9449 0.100093 11.193 0 11.4889 0C11.7848 0 12.0329 0.100093 12.2331 0.300278C12.4332 0.500463 12.5333 0.748519 12.5333 1.04444V2.08889H14.6222C15.1967 2.08889 15.6884 2.29343 16.0975 2.7025C16.5066 3.11157 16.7111 3.60333 16.7111 4.17778V6.26667H17.7556C18.0515 6.26667 18.2995 6.36676 18.4997 6.56694C18.6999 6.76713 18.8 7.01519 18.8 7.31111C18.8 7.60704 18.6999 7.85509 18.4997 8.05528C18.2995 8.25546 18.0515 8.35556 17.7556 8.35556H16.7111V10.4444H17.7556C18.0515 10.4444 18.2995 10.5445 18.4997 10.7447C18.6999 10.9449 18.8 11.193 18.8 11.4889C18.8 11.7848 18.6999 12.0329 18.4997 12.2331C18.2995 12.4332 18.0515 12.5333 17.7556 12.5333H16.7111V14.6222C16.7111 15.1967 16.5066 15.6884 16.0975 16.0975C15.6884 16.5066 15.1967 16.7111 14.6222 16.7111H12.5333V17.7556C12.5333 18.0515 12.4332 18.2995 12.2331 18.4997C12.0329 18.6999 11.7848 18.8 11.4889 18.8C11.193 18.8 10.9449 18.6999 10.7447 18.4997C10.5445 18.2995 10.4444 18.0515 10.4444 17.7556V16.7111H8.35556V17.7556C8.35556 18.0515 8.25546 18.2995 8.05528 18.4997C7.85509 18.6999 7.60704 18.8 7.31111 18.8C7.01519 18.8 6.76713 18.6999 6.56694 18.4997C6.36676 18.2995 6.26667 18.0515 6.26667 17.7556ZM14.6222 14.6222V4.17778H4.17778V14.6222H14.6222Z" fill="#4D2ABB"/>
</svg>
