<svg width="33" height="33" viewBox="0 0 33 33" fill="none" xmlns="http://www.w3.org/2000/svg">
<path d="M28.9424 7.69842L28.8815 30.6402C28.8815 31.1704 28.4625 31.5954 27.9388 31.5954H6.06301C5.54022 31.5954 5.12027 31.1704 5.12027 30.6402V2.35517C5.12027 1.82548 5.54022 1.39999 6.06301 1.39999L22.68 1.36526L21.3696 0.00195519H6.10886C5.81815 0.00155511 5.53022 0.0592748 5.26157 0.171808C4.99291 0.28434 4.74881 0.449475 4.54325 0.65775C4.33769 0.866024 4.17471 1.11335 4.06364 1.38555C3.95257 1.65775 3.8956 1.94948 3.896 2.24402V30.757C3.89566 31.0515 3.95267 31.3433 4.06375 31.6154C4.17484 31.8876 4.33783 32.1349 4.54338 32.3432C4.74893 32.5514 4.99301 32.7166 5.26163 32.8291C5.53026 32.9417 5.81817 32.9994 6.10886 32.9991H27.8934C28.1841 32.9994 28.4719 32.9416 28.7405 32.829C29.0092 32.7164 29.2532 32.5513 29.4587 32.343C29.6643 32.1348 29.8273 31.8875 29.9384 31.6154C30.0495 31.3432 30.1065 31.0515 30.1063 30.757V8.87004L28.9424 7.69842Z" fill="#ECECEC"/>
<path d="M21.3862 6.28168C21.3861 6.60138 21.4482 6.91797 21.5689 7.21335C21.6896 7.50874 21.8666 7.77712 22.0897 8.00317C22.3129 8.22921 22.5778 8.40848 22.8694 8.53073C23.1609 8.65299 23.4734 8.71582 23.7889 8.71565L30.0274 8.79924L21.3862 0L21.3862 6.28168Z" fill="#ECECEC"/>
<path d="M11.1719 15.3984C11.6716 15.3984 12.1082 15.4986 12.4816 15.699C12.855 15.8993 13.1422 16.1831 13.3432 16.5504C13.55 16.9111 13.6534 17.3351 13.6534 17.8226C13.6534 18.3035 13.55 18.7275 13.3432 19.0948C13.1422 19.4555 12.855 19.7359 12.4816 19.9363C12.1082 20.13 11.6716 20.2268 11.1719 20.2268H10.2499V22.7311H9.00049V15.3984H11.1719ZM11.034 18.9947C11.4246 18.9947 11.7377 18.8978 11.9732 18.7042C12.2087 18.5038 12.3265 18.21 12.3265 17.8226C12.3265 17.4353 12.2087 17.1415 11.9732 16.9411C11.7377 16.7341 11.4246 16.6306 11.034 16.6306H10.2499V18.9947H11.034Z" fill="#4D2ABB"/>
<path d="M16.5893 15.3984C17.2039 15.3984 17.7583 15.542 18.2523 15.8292C18.752 16.1163 19.1455 16.5371 19.4328 17.0914C19.72 17.639 19.8636 18.2935 19.8636 19.0548C19.8636 19.8161 19.72 20.4739 19.4328 21.0282C19.1455 21.5825 18.7549 22.0065 18.2609 22.3004C17.7669 22.5876 17.2097 22.7311 16.5893 22.7311H14.4868V15.3984H16.5893ZM16.4428 21.489C17.1206 21.489 17.6405 21.2786 18.0024 20.8579C18.3643 20.4372 18.5452 19.8361 18.5452 19.0548C18.5452 18.2868 18.3614 17.6924 17.9938 17.2717C17.6319 16.8443 17.1149 16.6306 16.4428 16.6306H15.7362V21.489H16.4428Z" fill="#4D2ABB"/>
<path d="M20.8904 15.3984H25.0005V16.6706H22.1398V18.5439H24.6989V19.8061H22.1398V22.7311H20.8904V15.3984Z" fill="#4D2ABB"/>
</svg>
