<svg width="33" height="33" viewBox="0 0 33 33" fill="none" xmlns="http://www.w3.org/2000/svg">
<g clip-path="url(#clip0_2155_7645)">
<circle cx="16.0795" cy="16.0795" r="10.5256" stroke="#D40D02" stroke-width="1.10795"/>
<path d="M15.2402 10.5391H17.1708L16.9294 18.2612H15.4816L15.2402 10.5391ZM16.2055 21.157C15.9495 21.157 15.704 21.0553 15.523 20.8742C15.3419 20.6932 15.2402 20.4477 15.2402 20.1917C15.2402 19.9357 15.3419 19.6902 15.523 19.5092C15.704 19.3281 15.9495 19.2264 16.2055 19.2264C16.4615 19.2264 16.707 19.3281 16.888 19.5092C17.0691 19.6902 17.1708 19.9357 17.1708 20.1917C17.1708 20.4477 17.0691 20.6932 16.888 20.8742C16.707 21.0553 16.4615 21.157 16.2055 21.157Z" fill="#D40D02"/>
</g>
<defs>
<clipPath id="clip0_2155_7645">
<rect width="22.1591" height="22.1591" fill="white" transform="translate(5 5)"/>
</clipPath>
</defs>
</svg>
