<svg width="14" height="14" viewBox="0 0 14 14" fill="none" xmlns="http://www.w3.org/2000/svg">
<mask id="mask0_2155_7807" style="mask-type:alpha" maskUnits="userSpaceOnUse" x="0" y="0" width="14" height="14">
<rect width="14" height="14" fill="#D9D9D9"/>
</mask>
<g mask="url(#mask0_2155_7807)">
<path d="M6.99984 12.8327C6.20262 12.8327 5.44914 12.6796 4.73942 12.3733C4.0297 12.0671 3.40991 11.649 2.88005 11.1191C2.35018 10.5893 1.93213 9.96949 1.62588 9.25977C1.31963 8.55004 1.1665 7.79657 1.1665 6.99935C1.1665 6.1924 1.31963 5.4365 1.62588 4.73164C1.93213 4.02678 2.35018 3.40942 2.88005 2.87956C3.40991 2.3497 4.0297 1.93164 4.73942 1.62539C5.44914 1.31914 6.20262 1.16602 6.99984 1.16602C7.16512 1.16602 7.30366 1.22192 7.41546 1.33372C7.52727 1.44553 7.58317 1.58407 7.58317 1.74935C7.58317 1.91463 7.52727 2.05317 7.41546 2.16497C7.30366 2.27678 7.16512 2.33268 6.99984 2.33268C5.70678 2.33268 4.60574 2.7872 3.69671 3.69622C2.78768 4.60525 2.33317 5.70629 2.33317 6.99935C2.33317 8.29241 2.78768 9.39345 3.69671 10.3025C4.60574 11.2115 5.70678 11.666 6.99984 11.666C8.29289 11.666 9.39394 11.2115 10.303 10.3025C11.212 9.39345 11.6665 8.29241 11.6665 6.99935C11.6665 6.83407 11.7224 6.69553 11.8342 6.58372C11.946 6.47192 12.0846 6.41602 12.2498 6.41602C12.4151 6.41602 12.5537 6.47192 12.6655 6.58372C12.7773 6.69553 12.8332 6.83407 12.8332 6.99935C12.8332 7.79657 12.68 8.55004 12.3738 9.25977C12.0675 9.96949 11.6495 10.5893 11.1196 11.1191C10.5898 11.649 9.97241 12.0671 9.26755 12.3733C8.56269 12.6796 7.80678 12.8327 6.99984 12.8327Z" fill="#4D2ABB"/>
</g>
</svg>
