<svg width="20" height="20" viewBox="0 0 20 20" fill="none" xmlns="http://www.w3.org/2000/svg">
<g clip-path="url(#clip0_2180_9921)">
<path d="M14.8447 3.30859C14.3957 3.37246 13.9642 3.528 13.5781 3.76758C13.1602 4.027 12.8052 4.37702 12.541 4.79199V4.79297C12.471 4.90231 12.3746 4.9923 12.2607 5.05469C12.1467 5.1171 12.0186 5.15033 11.8887 5.15039H9.36035C9.23082 5.1499 9.10375 5.1161 8.99023 5.05371C8.87672 4.99129 8.77977 4.90209 8.70996 4.79297V4.79199C8.44576 4.37718 8.09169 4.02693 7.67383 3.76758C7.2875 3.5278 6.85562 3.37247 6.40625 3.30859C6.25958 3.67285 6.17819 4.06093 6.16895 4.4541C6.16015 4.8304 6.21665 5.20504 6.33496 5.56152L6.38965 5.71387V5.71484C6.43656 5.83774 6.45219 5.97037 6.43359 6.10059C6.41543 6.22759 6.36423 6.34707 6.28809 6.4502L6.28906 6.45117C5.96061 6.94883 5.7827 7.53072 5.77539 8.12695V8.75C5.77539 9.53902 6.08857 10.2956 6.64648 10.8535C7.2044 11.4114 7.96098 11.7246 8.75 11.7246H12.5C13.289 11.7246 14.0456 11.4114 14.6035 10.8535C15.1614 10.2956 15.4746 9.53902 15.4746 8.75V8.12695C15.4657 7.52913 15.2847 6.94675 14.9531 6.44922V6.44824C14.8789 6.34396 14.8311 6.22271 14.8145 6.0957C14.7977 5.96671 14.8137 5.83529 14.8604 5.71387L14.915 5.56152C15.0336 5.20507 15.0896 4.83046 15.0811 4.4541C15.072 4.06089 14.9912 3.67296 14.8447 3.30859ZM17.0254 8.75C17.024 9.84361 16.6265 10.8999 15.9072 11.7236C15.2417 12.4858 14.3415 13.0008 13.3525 13.1914C13.7085 13.7256 13.9007 14.3544 13.9004 15V18.125C13.9004 18.3305 13.8182 18.5275 13.6729 18.6729C13.5275 18.8182 13.3305 18.9004 13.125 18.9004C12.9195 18.9004 12.7225 18.8182 12.5771 18.6729C12.4318 18.5275 12.3496 18.3305 12.3496 18.125V15C12.3496 14.5425 12.1682 14.1038 11.8447 13.7803C11.5212 13.4568 11.0825 13.2754 10.625 13.2754C10.1675 13.2754 9.72877 13.4568 9.40527 13.7803C9.08178 14.1038 8.90039 14.5425 8.90039 15V18.125C8.90039 18.3305 8.81819 18.5275 8.67285 18.6729C8.52751 18.8182 8.33054 18.9004 8.125 18.9004C7.91946 18.9004 7.72249 18.8182 7.57715 18.6729C7.43181 18.5275 7.34961 18.3305 7.34961 18.125V17.0254H5.625C4.75642 17.0254 3.92375 16.6796 3.30957 16.0654C2.69539 15.4512 2.34961 14.6186 2.34961 13.75C2.34961 13.2925 2.16822 12.8538 1.84473 12.5303C1.52123 12.2068 1.0825 12.0254 0.625 12.0254C0.419457 12.0254 0.222489 11.9432 0.0771484 11.7979C-0.0681892 11.6525 -0.150391 11.4555 -0.150391 11.25C-0.150388 11.0445 -0.0681899 10.8475 0.0771484 10.7021C0.222489 10.5568 0.41946 10.4746 0.625 10.4746C1.05501 10.4746 1.48064 10.5601 1.87793 10.7246C2.27527 10.8892 2.63632 11.1305 2.94043 11.4346C3.24454 11.7387 3.48581 12.0997 3.65039 12.4971C3.81492 12.8944 3.90039 13.32 3.90039 13.75C3.90039 14.2075 4.08178 14.6462 4.40527 14.9697C4.72877 15.2932 5.1675 15.4746 5.625 15.4746H7.34961V15C7.34925 14.3546 7.54075 13.7255 7.89648 13.1914C6.90785 13.0006 6.00813 12.4855 5.34277 11.7236C4.6235 10.8999 4.22597 9.84361 4.22461 8.75V8.12305C4.2325 7.34265 4.4363 6.57743 4.81445 5.89551C4.63193 5.27782 4.57423 4.62972 4.64648 3.98926C4.72115 3.32755 4.93265 2.68842 5.2666 2.1123L5.32227 2.02832C5.38401 1.9478 5.46138 1.88018 5.5498 1.8291C5.66764 1.76109 5.80144 1.72458 5.9375 1.72461L6.21875 1.73242C6.87292 1.76934 7.51374 1.93955 8.10156 2.2334C8.75055 2.55789 9.31676 3.02579 9.75977 3.59961H11.4902C11.9332 3.02579 12.4994 2.55789 13.1484 2.2334C13.8203 1.89755 14.5614 1.72309 15.3125 1.72461L15.4141 1.73145C15.5145 1.7447 15.6119 1.77811 15.7002 1.8291C15.8178 1.89705 15.9154 1.99469 15.9834 2.1123L16.1035 2.33105C16.3686 2.84836 16.5382 3.41028 16.6035 3.98926C16.6758 4.62981 16.6172 5.27774 16.4346 5.89551C16.8129 6.57754 17.0175 7.34249 17.0254 8.12305V8.75Z" fill="black" stroke="black" stroke-width="0.3"/>
</g>
<defs>
<clipPath id="clip0_2180_9921">
<rect width="20" height="20" fill="white"/>
</clipPath>
</defs>
</svg>
