<svg width="24" height="24" viewBox="0 0 24 24" fill="none" xmlns="http://www.w3.org/2000/svg">
<g clip-path="url(#clip0_2155_7885)">
<path d="M0 0.999999C0 0.447714 0.447715 0 1 0H7.00001C7.5523 0 8.00001 0.447715 8.00001 1V7.99992H0V0.999999Z" fill="#1E1B4A"/>
<rect y="8" width="8.00001" height="7.99992" fill="#1E1B4A" fill-opacity="0.6"/>
<path d="M0 16H8.00001V23.9999H0.999999C0.447715 23.9999 0 23.5522 0 22.9999V16Z" fill="#1E1B4A" fill-opacity="0.6"/>
<rect x="8" y="16" width="8.00001" height="7.99992" fill="#1E1B4A" fill-opacity="0.6"/>
<path d="M16 16H23C23.5523 16 24 16.4477 24 17V22.9999C24 23.5522 23.5523 23.9999 23 23.9999H16V16Z" fill="#1E1B4A"/>
<path d="M8 8H15C15.5523 8 16 8.44772 16 9V15.9999H8V8Z" fill="#1E1B4A"/>
</g>
<defs>
<clipPath id="clip0_2155_7885">
<rect width="24" height="24" rx="2" fill="white"/>
</clipPath>
</defs>
</svg>
