<svg width="20" height="20" viewBox="0 0 20 20" fill="none" xmlns="http://www.w3.org/2000/svg">
<path d="M10 1.77539C12.1807 1.77769 14.2715 2.64456 15.8135 4.18652C17.3554 5.72849 18.2223 7.81933 18.2246 10L18.2197 10.3047C18.1634 11.8246 17.6861 13.3014 16.8389 14.5693C15.9351 15.9219 14.6504 16.9761 13.1475 17.5986C11.6446 18.2211 9.99094 18.3847 8.39551 18.0674C6.80001 17.75 5.33388 16.9667 4.18359 15.8164C3.03331 14.6661 2.24998 13.2 1.93262 11.6045C1.61531 10.0091 1.77886 8.3554 2.40137 6.85254C3.0239 5.34962 4.07807 4.06491 5.43066 3.16113C6.78322 2.25743 8.37332 1.77539 10 1.77539ZM12.5928 3.74023C11.3549 3.22753 9.99278 3.09416 8.67871 3.35547C7.36449 3.61688 6.15648 4.26148 5.20898 5.20898C4.26148 6.15649 3.61688 7.36449 3.35547 8.67871C3.09416 9.99278 3.22753 11.3549 3.74023 12.5928C4.25302 13.8307 5.12219 14.8884 6.23633 15.6328C7.35046 16.3772 8.66005 16.7754 10 16.7754L10.3359 16.7666C12.0098 16.6817 13.5974 15.9788 14.7881 14.7881C16.0582 13.518 16.7733 11.7962 16.7754 10L16.7705 9.74902C16.7241 8.49699 16.3307 7.2808 15.6328 6.23633C14.8884 5.12219 13.8307 4.25302 12.5928 3.74023ZM12.5 6.77539C12.6923 6.77539 12.8767 6.85134 13.0127 6.9873C13.1487 7.12327 13.2246 7.30772 13.2246 7.5V11.25C13.2246 11.4423 13.1487 11.6267 13.0127 11.7627C12.8767 11.8987 12.6923 11.9746 12.5 11.9746C12.3077 11.9746 12.1233 11.8987 11.9873 11.7627C11.8513 11.6267 11.7754 11.4423 11.7754 11.25V9.24902L8.0127 13.0127C7.94534 13.08 7.86535 13.1335 7.77734 13.1699C7.68938 13.2063 7.59521 13.2256 7.5 13.2256C7.40479 13.2256 7.31062 13.2063 7.22266 13.1699C7.13465 13.1335 7.05466 13.08 6.9873 13.0127C6.91995 12.9453 6.86653 12.8653 6.83008 12.7773C6.79366 12.6894 6.77441 12.5952 6.77441 12.5C6.77441 12.4048 6.79366 12.3106 6.83008 12.2227C6.86653 12.1347 6.91995 12.0547 6.9873 11.9873L10.751 8.22461H8.75C8.55772 8.22461 8.37327 8.14866 8.2373 8.0127C8.10134 7.87673 8.02539 7.69228 8.02539 7.5C8.02539 7.30772 8.10134 7.12327 8.2373 6.9873C8.37327 6.85134 8.55772 6.77539 8.75 6.77539H12.5Z" fill="#4D2ABB" stroke="#4D2ABB" stroke-width="0.2"/>
</svg>
