<svg width="547" height="96" viewBox="0 0 547 96" fill="none" xmlns="http://www.w3.org/2000/svg">
<path fill-rule="evenodd" clip-rule="evenodd" d="M68.9705 31.7207C61.6232 32.0822 55.3168 33.0888 49.5502 34.8205C46.5862 35.7106 43.0352 36.9852 40.8421 37.9461C39.4259 38.5667 36.404 40.095 35.0124 40.8945C30.6086 43.4245 26.6779 46.5035 23.2791 50.0854C22.5707 50.832 21.9134 51.5534 21.8183 51.6886L21.6456 51.9344L21.8981 51.733C24.7495 49.4583 28.6653 46.9273 31.9128 45.26C37.2897 42.4994 44.0499 40.2049 50.0239 39.1128C51.5426 38.8353 54.2746 38.4384 55.8172 38.2713C60.6389 37.749 67.1704 37.6937 72.5412 38.1296C77.0305 38.4939 83.4901 39.4175 87.3706 40.2498C88.9962 40.5985 93.8905 41.7858 95.4593 42.2121C98.798 43.1194 103.507 44.6387 106.062 45.6334C107.004 46 107.84 46.3052 107.92 46.3116C108.056 46.3225 108.069 46.2656 108.109 45.4853C108.167 44.362 108.351 43.8487 109.068 42.8078C109.819 41.7176 111.155 40.6152 113.054 39.5196L113.816 39.0801L113.601 38.9965C113.482 38.9505 112.402 38.5864 111.2 38.1874C106.198 36.5279 100.096 34.9537 94.184 33.798C89.9399 32.9683 86.7706 32.4974 82.5975 32.0763C78.8392 31.6972 72.7028 31.537 68.9705 31.7207ZM136.741 41.1574C136.741 41.2523 136.344 42.7989 136.187 43.3174C136.151 43.4351 136.238 43.4449 137.316 43.4449H138.484L138.556 43.1716C138.704 42.6086 139 41.265 139 41.1547C139 41.0554 138.849 41.0401 137.87 41.0401C136.881 41.0401 136.741 41.0546 136.741 41.1574ZM133.426 43.536C133.385 43.6555 132.879 45.9565 132.879 46.0218C132.879 46.0495 133.379 46.063 133.99 46.0519L135.101 46.0318L135.198 45.7403C135.343 45.3033 135.637 44.1838 135.71 43.791L135.775 43.4449H134.616C133.754 43.4449 133.449 43.4682 133.426 43.536ZM130.143 44.1565C130.075 44.2046 129.527 46.2814 129.527 46.4921C129.527 46.5867 130.792 46.6133 131.462 46.5328L131.83 46.4885L132.064 45.3857C132.193 44.7792 132.298 44.242 132.297 44.1918C132.296 44.1232 132.039 44.101 131.257 44.1018C130.686 44.1025 130.185 44.127 130.143 44.1565ZM70.4622 46.05C70.0836 46.6211 67.4073 50.1603 66.6737 51.06C65.4254 52.591 59.5215 60.2448 58.3547 61.8449C57.6324 62.8354 56.6547 64.2489 56.6555 64.3016C56.6562 64.3487 60.734 64.3673 61.1607 64.3221L61.6218 64.2733L62.1078 63.6057C62.375 63.2385 63.1497 62.2002 63.8292 61.2984C65.3419 59.291 65.7983 58.6992 69.0759 54.4964C70.04 53.2602 71.0398 51.9718 71.2978 51.6332C71.6064 51.2283 71.784 51.0498 71.8168 51.1116C71.8443 51.1634 71.8891 51.4188 71.9165 51.6794C71.9438 51.9399 72.0647 52.7925 72.185 53.574C72.3053 54.3556 72.6977 57.0445 73.0569 59.5495C73.4162 62.0544 73.7286 64.1633 73.7514 64.2359C73.7903 64.3604 73.93 64.3666 76.2216 64.3452C77.5575 64.3328 78.6655 64.3062 78.6841 64.2861C78.7025 64.2661 78.6721 63.9218 78.6164 63.521C78.5608 63.1202 78.3687 61.7265 78.1896 60.4239C78.0105 59.1214 77.6352 56.4652 77.3556 54.5213C77.0761 52.5775 76.6975 49.9049 76.5145 48.5823C76.3314 47.2597 76.1631 46.0546 76.1404 45.9043L76.0991 45.631H73.4196H70.74L70.4622 46.05ZM87.482 46.3764C87.3562 46.7881 87.0254 47.823 86.7471 48.6762C86.4688 49.5294 86.241 50.2508 86.241 50.2794C86.241 50.3079 89.0757 50.3212 92.5402 50.3089C99.4792 50.2845 99.1525 50.2644 99.3931 50.7296C99.6342 51.1959 99.4182 52.5184 98.9501 53.4421C98.6839 53.9676 98.17 54.4867 97.6924 54.7126L97.2838 54.9059L90.9791 54.8919L84.6743 54.8778L84.4633 55.6651C84.3473 56.0981 83.9809 57.2886 83.6492 58.3107C83.1409 59.8768 82.1583 62.9789 81.8372 64.0311L81.7482 64.3226L83.8671 64.3388C85.0325 64.3477 86.104 64.3374 86.2484 64.316L86.5108 64.277L86.807 63.3524C86.97 62.8439 87.2959 61.8213 87.5315 61.0798L87.9595 59.7317L91.9107 59.7128C96.2783 59.692 96.2346 59.6879 96.514 60.1463C96.6204 60.321 96.6491 60.4578 96.6179 60.6426C96.5701 60.926 95.9442 63.0713 95.7153 63.7369C95.6346 63.9713 95.5686 64.199 95.5687 64.2429C95.5687 64.3483 100.12 64.3546 100.225 64.2493C100.324 64.1493 101.52 60.1026 101.62 59.527C101.762 58.7134 101.491 57.8732 100.87 57.2007C100.76 57.0812 100.671 56.9625 100.672 56.9366C100.673 56.9108 100.955 56.6765 101.298 56.416C102.746 55.3162 102.989 54.8994 104.019 51.7522C104.955 48.8931 105.07 48.4465 105.019 47.8677C104.943 47.0023 104.317 46.1827 103.471 45.8421L103.038 45.6675L95.3744 45.6476L87.7108 45.6278L87.482 46.3764ZM112.807 45.7431C111.422 45.9756 109.987 46.7312 108.936 47.7824C107.722 48.9964 107.306 49.838 106.273 53.1732C104.745 58.1032 104.167 60.2499 104.169 60.9901C104.171 62.0493 104.502 62.957 105.095 63.5332C105.554 63.9793 106.027 64.2024 106.701 64.2897C107.057 64.3359 110.242 64.3554 115.35 64.3427L123.435 64.3226L123.79 63.1931C123.985 62.5718 124.29 61.6027 124.468 61.0395C124.645 60.4763 124.79 59.9926 124.79 59.9646C124.79 59.9367 121.65 59.9135 117.813 59.9131L110.835 59.9124L110.465 59.7401C109.775 59.419 109.566 58.9412 109.704 58.0005C109.859 56.9396 110.93 53.5433 111.456 52.4445C111.77 51.7893 112.337 51.1101 112.791 50.8453C112.958 50.748 113.307 50.6351 113.568 50.5944C113.849 50.5504 116.806 50.505 120.855 50.4823L127.668 50.4443L127.768 50.2056C127.886 49.9213 128.542 47.7796 128.894 46.5237L129.145 45.631L121.265 45.6385C115.067 45.6444 113.262 45.6667 112.807 45.7431ZM132.855 47.216C132.837 47.2461 132.799 47.4182 132.77 47.5986C132.742 47.7789 132.623 48.3177 132.508 48.7957C132.392 49.2738 132.309 49.676 132.322 49.6895C132.384 49.7518 133.972 49.7875 134.262 49.733L134.588 49.6719L134.822 48.6899C134.951 48.1498 135.077 47.5849 135.103 47.4346L135.151 47.1613H134.019C133.397 47.1613 132.873 47.1859 132.855 47.216ZM129.854 47.8022L129.49 47.8235L129.207 49.0045C129.052 49.654 128.909 50.2265 128.89 50.2766C128.863 50.3471 129.111 50.3677 129.984 50.3677C130.801 50.3677 131.131 50.3425 131.181 50.2766C131.219 50.2265 131.36 49.6936 131.493 49.0924C131.627 48.4912 131.749 47.9502 131.764 47.89C131.788 47.7979 131.669 47.7807 131.006 47.7807C130.573 47.7807 130.055 47.7904 129.854 47.8022ZM35.5938 52.0998L34.0983 52.1194L33.6144 53.5751C33.3483 54.3757 33.1551 55.0459 33.1852 55.0645C33.2152 55.0831 35.7203 55.0956 38.7519 55.0924C42.7502 55.0881 44.2814 55.0639 44.3275 55.0043C44.3768 54.9405 44.8899 53.3802 45.2412 52.2259C45.2852 52.0813 45.2517 52.0802 41.1874 52.0802C38.9334 52.0802 36.4163 52.089 35.5938 52.0998ZM5.40777 53.5919C5.13756 54.4058 4.91647 55.0873 4.91647 55.1062C4.91647 55.1252 6.9498 55.1319 9.43493 55.1209C14.4663 55.0989 14.2995 55.0837 14.4627 55.5782C14.5711 55.9069 14.5248 56.1782 14.1201 57.582C13.5649 59.5082 13.1982 60.3772 12.7771 60.7652C12.3944 61.1179 12.4446 61.1142 7.57205 61.1376L2.97699 61.1596L2.48766 62.7047C2.21854 63.5544 1.99906 64.2716 2 64.2983C2.00088 64.325 4.42006 64.3403 7.37588 64.3323C13.3124 64.316 13.0634 64.3344 14.0441 63.8396C14.6373 63.5402 15.4618 62.7194 15.7571 62.1343C15.879 61.8927 16.0786 61.3844 16.2007 61.0048C16.7713 59.23 17.9027 55.4349 18.0052 54.9514C18.267 53.7165 17.9174 52.8902 16.9038 52.348L16.5395 52.153L11.2193 52.1325L5.89906 52.1121L5.40777 53.5919ZM25.5344 52.9728C25.2028 53.4437 24.5005 54.3865 23.9739 55.0679C20.8734 59.0791 17.098 64.1778 17.1735 64.2517C17.1855 64.2635 17.864 64.2842 18.6812 64.2978L20.167 64.3226L20.2988 64.1404C20.9193 63.2824 22.5041 61.1709 22.9363 60.6262C23.2312 60.2544 23.7949 59.524 24.1889 59.0029C25.7496 56.9393 26.7294 55.6873 26.7834 55.6873C26.8147 55.6873 26.8623 55.8759 26.8891 56.1063C26.9159 56.3367 27.0313 57.1648 27.1455 57.9463C27.4128 59.7765 27.6876 61.75 27.8356 62.9016C27.9 63.4026 27.9707 63.9191 27.9928 64.0493L28.033 64.2861H29.5916H31.1502L31.1496 64.1222C31.1483 63.7548 30.7402 60.7156 29.9409 55.1225L29.5114 52.1166H27.8244H26.1375L25.5344 52.9728ZM49.79 52.4992C49.6499 52.7096 49.0161 53.554 48.3814 54.3756C47.7468 55.1972 46.9151 56.2794 46.5334 56.7804C46.1517 57.2814 45.6387 57.9372 45.3933 58.2378C44.2591 59.6272 40.9879 64.0893 40.9879 64.2469C40.9879 64.2685 41.7245 64.2861 42.6249 64.2861C44.2486 64.2861 44.2626 64.2848 44.3477 64.1222C44.558 63.7204 45.0528 63.0272 46.4145 61.2262C47.2173 60.1645 48.0382 59.0774 48.2386 58.8105C48.8252 58.029 50.276 56.1862 50.5538 55.8695L50.8095 55.578L50.8594 56.0881C50.9123 56.6292 51.0381 57.6459 51.4458 60.8247C51.8606 64.0588 51.8915 64.2839 51.9239 64.3036C51.941 64.314 52.6617 64.3132 53.5255 64.3017L55.096 64.2807L55.0331 63.6822C54.9201 62.6068 53.7901 54.3747 53.5129 52.6085L53.4357 52.1166H51.7401H50.0445L49.79 52.4992ZM3.9926 58.0556L3.47157 59.6224H5.0179H6.56424L7.02413 58.1467C7.27706 57.3351 7.49932 56.6301 7.51798 56.58C7.5445 56.5089 7.21767 56.4889 6.03278 56.4889H4.51356L3.9926 58.0556ZM36.8675 56.5982C36.5567 57.6862 35.7704 60.3267 35.4787 61.262C35.2662 61.9433 34.9954 62.8451 34.8769 63.2659C34.7584 63.6868 34.6383 64.0892 34.61 64.1601C34.5615 64.2815 34.6486 64.2879 36.0728 64.2694L37.5873 64.2497L37.679 63.9582C38.2573 62.1201 39.8172 56.7747 39.8207 56.6193C39.8226 56.5356 36.8914 56.5146 36.8675 56.5982ZM66.5845 60.111C66.4572 60.1355 66.3948 60.2338 66.3017 60.5564C66.2358 60.7841 65.9293 61.6099 65.6203 62.3915C65.1106 63.6806 64.9752 64.0623 64.9657 64.2355C64.961 64.3234 69.6878 64.3267 69.7757 64.2388C69.8441 64.1704 71.1566 60.2578 71.1566 60.1224C71.1566 60.0605 66.9016 60.0498 66.5845 60.111Z" fill="#1E1B4A"/>
<line x1="159.5" y1="38" x2="159.5" y2="60" stroke="#E0E0E0"/>
<path d="M197.581 44.3387C194.775 44.3387 192.5 46.6134 192.5 49.4194C192.5 49.7254 192.527 50.0251 192.579 50.3163C192.065 54.5422 188.497 57.8145 184.172 57.8145C184.07 57.8145 183.969 57.8124 183.868 57.8088L183.868 57.817C183.921 57.8154 183.973 57.8145 184.026 57.8145C184.735 57.8145 185.411 57.9605 186.026 58.2244C185.426 57.976 184.77 57.8387 184.081 57.8387C181.275 57.8387 179 60.1134 179 62.9194C179 65.7253 181.275 68 184.081 68C186.887 68 189.161 65.7253 189.161 62.9194C189.161 62.7772 189.155 62.6364 189.144 62.4972C189.3 58.3372 192.4 54.9382 196.401 54.3621C196.802 54.4506 197.175 54.5 197.581 54.5C200.387 54.5 202.661 52.2253 202.661 49.4194C202.661 46.6134 200.387 44.3387 197.581 44.3387Z" fill="url(#paint0_linear_2180_10039)"/>
<path d="M197.581 32C187.96 32 180.161 39.7989 180.161 49.4194C180.161 51.6641 181.981 53.4839 184.226 53.4839C186.471 53.4839 188.29 51.6641 188.29 49.4194C188.29 44.2885 192.45 40.129 197.581 40.129C202.712 40.129 206.871 44.2885 206.871 49.4194C206.871 54.5503 202.712 58.7097 197.581 58.7097C195.336 58.7097 193.516 60.5294 193.516 62.7742C193.516 65.019 195.336 66.8387 197.581 66.8387C207.201 66.8387 215 59.0398 215 49.4194C215 39.7989 207.201 32 197.581 32Z" fill="url(#paint1_linear_2180_10039)"/>
<path d="M376.3 58.7042C376.134 58.7042 376 58.5699 376 58.4042V39.3703C376 39.2046 376.134 39.0703 376.3 39.0703H382.785C384.381 39.0703 385.83 39.3248 387.13 39.8339C388.446 40.3429 389.577 41.0482 390.523 41.9499C391.483 42.8371 392.222 43.877 392.74 45.0695C393.257 46.2621 393.516 47.5347 393.516 48.8872C393.516 50.2398 393.257 51.5124 392.74 52.7049C392.222 53.8975 391.483 54.9446 390.523 55.8464C389.577 56.7335 388.446 57.4316 387.13 57.9406C385.83 58.4497 384.381 58.7042 382.785 58.7042H376.3ZM379.858 54.8701C379.858 55.0358 379.992 55.1701 380.158 55.1701H382.43C383.553 55.1701 384.544 55.0101 385.401 54.6901C386.258 54.3556 386.975 53.9048 387.552 53.3376C388.143 52.7558 388.586 52.0868 388.882 51.3306C389.192 50.5743 389.348 49.7599 389.348 48.8872C389.348 48.0146 389.192 47.2002 388.882 46.4439C388.586 45.6731 388.143 45.0041 387.552 44.4369C386.975 43.8552 386.258 43.4043 385.401 43.0843C384.544 42.7644 383.553 42.6044 382.43 42.6044H380.158C379.992 42.6044 379.858 42.7387 379.858 42.9044V54.8701Z" fill="#201B67"/>
<path d="M404.309 59.0532C403.082 59.0532 401.966 58.7405 400.961 58.1152C399.956 57.4898 399.15 56.6608 398.544 55.6282C397.953 54.5811 397.657 53.4248 397.657 52.1595C397.657 50.8943 397.953 49.738 398.544 48.6909C399.15 47.6438 399.956 46.8148 400.961 46.2039C401.966 45.5786 403.082 45.2659 404.309 45.2659C405.166 45.2659 405.949 45.4186 406.659 45.724C407.125 45.915 407.546 46.1562 407.923 46.4476C408.137 46.6129 408.477 46.4702 408.477 46.1999V45.9149C408.477 45.7492 408.611 45.6149 408.777 45.6149H411.503C411.668 45.6149 411.803 45.7492 411.803 45.9149V58.4042C411.803 58.5699 411.668 58.7042 411.503 58.7042H408.777C408.611 58.7042 408.477 58.5699 408.477 58.4042V58.1192C408.477 57.8489 408.137 57.7065 407.924 57.873C407.547 58.1681 407.125 58.4161 406.659 58.6169C405.949 58.9078 405.166 59.0532 404.309 59.0532ZM404.774 55.7155C405.425 55.7155 406.016 55.5555 406.548 55.2355C407.08 54.9156 407.501 54.4865 407.812 53.9484C408.137 53.4103 408.3 52.814 408.3 52.1595C408.3 51.5051 408.137 50.9088 407.812 50.3707C407.501 49.8326 407.08 49.4035 406.548 49.0836C406.016 48.7636 405.425 48.6036 404.774 48.6036C404.124 48.6036 403.533 48.7636 403.001 49.0836C402.468 49.4035 402.04 49.8326 401.715 50.3707C401.404 50.9088 401.249 51.5051 401.249 52.1595C401.249 52.814 401.404 53.4103 401.715 53.9484C402.04 54.4865 402.468 54.9156 403.001 55.2355C403.533 55.5555 404.124 55.7155 404.774 55.7155Z" fill="#201B67"/>
<path d="M418.734 58.7042C418.569 58.7042 418.434 58.5699 418.434 58.4042V48.9255C418.434 48.7598 418.3 48.6255 418.134 48.6255H416.251C416.085 48.6255 415.951 48.4911 415.951 48.3255V45.9149C415.951 45.7492 416.085 45.6149 416.251 45.6149H418.201C418.366 45.6149 418.501 45.4806 418.501 45.3149V41.5519C418.501 41.3862 418.635 41.2519 418.801 41.2519H421.926C422.091 41.2519 422.226 41.3862 422.226 41.5519V45.3149C422.226 45.4806 422.36 45.6149 422.526 45.6149H424.564C424.73 45.6149 424.864 45.7492 424.864 45.9149V48.3255C424.864 48.4911 424.73 48.6255 424.564 48.6255H422.592C422.426 48.6255 422.292 48.7598 422.292 48.9255V58.4042C422.292 58.5699 422.158 58.7042 421.992 58.7042H418.734Z" fill="#201B67"/>
<path d="M434.351 59.0532C433.124 59.0532 432.008 58.7405 431.003 58.1152C429.998 57.4898 429.192 56.6608 428.586 55.6282C427.995 54.5811 427.699 53.4248 427.699 52.1595C427.699 50.8943 427.995 49.738 428.586 48.6909C429.192 47.6438 429.998 46.8148 431.003 46.2039C432.008 45.5786 433.124 45.2659 434.351 45.2659C435.208 45.2659 435.992 45.4186 436.701 45.724C437.167 45.915 437.588 46.1562 437.965 46.4476C438.179 46.6129 438.519 46.4702 438.519 46.1999V45.9149C438.519 45.7492 438.654 45.6149 438.819 45.6149H441.545C441.711 45.6149 441.845 45.7492 441.845 45.9149V58.4042C441.845 58.5699 441.711 58.7042 441.545 58.7042H438.819C438.654 58.7042 438.519 58.5699 438.519 58.4042V58.1192C438.519 57.8489 438.179 57.7065 437.966 57.873C437.589 58.1681 437.168 58.4161 436.701 58.6169C435.992 58.9078 435.208 59.0532 434.351 59.0532ZM434.817 55.7155C435.467 55.7155 436.058 55.5555 436.59 55.2355C437.122 54.9156 437.544 54.4865 437.854 53.9484C438.179 53.4103 438.342 52.814 438.342 52.1595C438.342 51.5051 438.179 50.9088 437.854 50.3707C437.544 49.8326 437.122 49.4035 436.59 49.0836C436.058 48.7636 435.467 48.6036 434.817 48.6036C434.166 48.6036 433.575 48.7636 433.043 49.0836C432.511 49.4035 432.082 49.8326 431.757 50.3707C431.446 50.9088 431.291 51.5051 431.291 52.1595C431.291 52.814 431.446 53.4103 431.757 53.9484C432.082 54.4865 432.511 54.9156 433.043 55.2355C433.575 55.5555 434.166 55.7155 434.817 55.7155Z" fill="#201B67"/>
<path d="M406.299 52.1497C406.299 52.9229 405.672 53.5497 404.899 53.5497C404.126 53.5497 403.499 52.9229 403.499 52.1497C403.499 51.3765 404.126 50.7497 404.899 50.7497C405.672 50.7497 406.299 51.3765 406.299 52.1497Z" fill="#201B67"/>
<path d="M237.053 59.1408C235.841 59.1408 234.688 58.9227 233.594 58.4863C232.584 58.0642 231.761 57.5656 231.127 56.9904C231.047 56.9183 231.016 56.8078 231.042 56.7036L231.908 53.2253C231.973 52.964 232.333 52.9081 232.496 53.1226C232.967 53.7438 233.563 54.2809 234.281 54.7341C235.227 55.3158 236.196 55.6067 237.186 55.6067C237.999 55.6067 238.635 55.3886 239.093 54.9523C239.566 54.5159 239.802 53.9851 239.802 53.3597C239.802 52.8507 239.677 52.4289 239.425 52.0944C239.189 51.7599 238.901 51.4836 238.561 51.2655C238.235 51.0473 237.947 50.88 237.696 50.7637L235.346 49.6075C234.666 49.273 234.015 48.8803 233.395 48.4294C232.774 47.9641 232.264 47.3896 231.865 46.706C231.48 46.0225 231.288 45.179 231.288 44.1754C231.288 43.0701 231.54 42.103 232.042 41.274C232.559 40.445 233.284 39.7978 234.215 39.3324C235.146 38.867 236.24 38.6343 237.496 38.6343C238.679 38.6343 239.728 38.8234 240.645 39.2015C241.491 39.5318 242.19 39.8861 242.743 40.2643C242.843 40.3326 242.888 40.4561 242.86 40.5737L242.031 44.0288C241.973 44.273 241.654 44.3444 241.483 44.1606C240.98 43.6213 240.405 43.1754 239.758 42.8229C238.945 42.3575 238.132 42.1248 237.319 42.1248C236.595 42.1248 236.033 42.3066 235.634 42.6702C235.25 43.0338 235.057 43.4846 235.057 44.0227C235.057 44.3572 235.131 44.6554 235.279 44.9172C235.442 45.179 235.671 45.4117 235.967 45.6153C236.262 45.8189 236.61 46.0225 237.009 46.2261L239.381 47.3823C239.78 47.5714 240.216 47.8186 240.689 48.124C241.162 48.4149 241.62 48.7858 242.064 49.2366C242.507 49.6875 242.869 50.2329 243.15 50.8728C243.431 51.4981 243.571 52.2471 243.571 53.1198C243.571 54.2542 243.305 55.2795 242.773 56.1957C242.241 57.0974 241.487 57.8173 240.512 58.3555C239.551 58.879 238.398 59.1408 237.053 59.1408Z" fill="#201B67"/>
<path d="M247.549 65.2491C247.326 65.2491 247.181 65.0133 247.282 64.8137L251.428 56.6139C251.471 56.5293 251.471 56.4293 251.428 56.3444L246.281 46.0494C246.181 45.85 246.326 45.6153 246.549 45.6153H250.134C250.248 45.6153 250.353 45.6805 250.403 45.7833L252.671 50.4146C252.878 50.851 253.055 51.2509 253.203 51.6145C253.231 51.6741 253.258 51.7334 253.284 51.7926C253.4 52.057 253.821 52.0632 253.939 51.7995C253.966 51.738 253.995 51.6764 254.023 51.6145C254.186 51.2509 254.378 50.851 254.6 50.4146L256.912 45.7813C256.962 45.6796 257.066 45.6153 257.18 45.6153H260.609C260.833 45.6153 260.978 45.8507 260.877 46.0502L251.291 65.0841C251.24 65.1853 251.136 65.2491 251.023 65.2491H247.549Z" fill="#201B67"/>
<path d="M265.163 58.7045C264.997 58.7045 264.863 58.5702 264.863 58.4045V45.9153C264.863 45.7496 264.997 45.6153 265.163 45.6153H268.022C268.187 45.6153 268.322 45.7496 268.322 45.9153V46.1777C268.322 46.4636 268.705 46.6038 268.918 46.4134C269.261 46.107 269.646 45.8555 270.073 45.6589C270.768 45.3389 271.514 45.179 272.312 45.179C273.258 45.179 274.138 45.4044 274.951 45.8552C275.779 46.2915 276.444 46.9387 276.946 47.7968C277.464 48.6403 277.722 49.6657 277.722 50.8728V58.4045C277.722 58.5702 277.588 58.7045 277.422 58.7045H274.165C273.999 58.7045 273.865 58.5702 273.865 58.4045V51.3745C273.865 50.6473 273.643 50.0002 273.199 49.433C272.756 48.8658 272.12 48.5822 271.293 48.5822C270.627 48.5822 270.029 48.8076 269.497 49.2584C268.979 49.6947 268.721 50.3856 268.721 51.3309V58.4045C268.721 58.5702 268.586 58.7045 268.421 58.7045H265.163Z" fill="#201B67"/>
<path d="M283.965 58.7045C283.799 58.7045 283.665 58.5702 283.665 58.4045V48.9258C283.665 48.7601 283.531 48.6258 283.365 48.6258H281.482C281.316 48.6258 281.182 48.4915 281.182 48.3258V45.9153C281.182 45.7496 281.316 45.6153 281.482 45.6153H283.432C283.597 45.6153 283.732 45.4809 283.732 45.3153V41.5522C283.732 41.3865 283.866 41.2522 284.032 41.2522H287.157C287.322 41.2522 287.457 41.3865 287.457 41.5522V45.3153C287.457 45.4809 287.591 45.6153 287.757 45.6153H289.795C289.961 45.6153 290.095 45.7496 290.095 45.9153V48.3258C290.095 48.4915 289.961 48.6258 289.795 48.6258H287.823C287.657 48.6258 287.523 48.7601 287.523 48.9258V58.4045C287.523 58.5702 287.389 58.7045 287.223 58.7045H283.965Z" fill="#201B67"/>
<path d="M294.55 58.7045C294.384 58.7045 294.25 58.5702 294.25 58.4045V38.0617C294.25 37.896 294.384 37.7617 294.55 37.7617H297.808C297.974 37.7617 298.108 37.896 298.108 38.0617V45.8809C298.108 46.147 298.438 46.2903 298.653 46.1335C298.984 45.8921 299.342 45.6975 299.727 45.5498C300.347 45.3026 301.005 45.179 301.7 45.179C302.646 45.179 303.525 45.4044 304.338 45.8552C305.166 46.2915 305.831 46.9387 306.334 47.7968C306.851 48.6403 307.11 49.6657 307.11 50.8728V58.4045C307.11 58.5702 306.976 58.7045 306.81 58.7045H303.552C303.386 58.7045 303.252 58.5702 303.252 58.4045V51.3745C303.252 50.6473 303.03 50.0002 302.587 49.433C302.143 48.8658 301.508 48.5822 300.68 48.5822C300.015 48.5822 299.416 48.8076 298.884 49.2584C298.367 49.6947 298.108 50.3856 298.108 51.3309V58.4045C298.108 58.5702 297.974 58.7045 297.808 58.7045H294.55Z" fill="#201B67"/>
<path d="M318.833 59.1408C317.34 59.1408 316.024 58.8354 314.886 58.2246C313.748 57.6137 312.861 56.7775 312.225 55.7158C311.59 54.6396 311.272 53.4106 311.272 52.029C311.272 50.7055 311.582 49.5348 312.203 48.5167C312.824 47.4841 313.659 46.6697 314.709 46.0734C315.773 45.4771 316.948 45.179 318.234 45.179C319.549 45.179 320.725 45.4771 321.759 46.0734C322.794 46.6551 323.607 47.455 324.198 48.4731C324.804 49.4911 325.107 50.6473 325.107 51.9417V52.9725C325.107 53.1382 324.973 53.2725 324.807 53.2725H316.992C316.623 53.2725 316.268 53.2507 315.928 53.207C315.732 53.1819 315.536 53.1543 315.341 53.1244C315.132 53.0925 314.954 53.2774 315.019 53.4781C315.238 54.1605 315.638 54.7319 316.216 55.1922C316.926 55.7303 317.827 55.9994 318.921 55.9994C319.764 55.9994 320.518 55.8321 321.183 55.4976C321.665 55.2605 322.084 54.9831 322.44 54.6655C322.621 54.5036 322.926 54.5796 322.985 54.8156L323.64 57.4636C323.669 57.581 323.625 57.7048 323.526 57.7741C322.901 58.2106 322.202 58.5426 321.427 58.7699C320.599 59.0172 319.734 59.1408 318.833 59.1408ZM314.99 50.2874C314.901 50.497 315.092 50.7058 315.316 50.6678C315.884 50.5718 316.443 50.5237 316.992 50.5237H319.343C319.756 50.5237 320.148 50.5383 320.518 50.5674C320.706 50.5822 320.888 50.6027 321.065 50.6288C321.29 50.6621 321.483 50.4547 321.395 50.2452C321.158 49.6813 320.807 49.2215 320.34 48.8658C319.764 48.4149 319.047 48.1895 318.19 48.1895C317.377 48.1895 316.667 48.4222 316.061 48.8876C315.593 49.2447 315.236 49.7113 314.99 50.2874Z" fill="#201B67"/>
<path d="M331.258 58.7045C331.092 58.7045 330.958 58.5702 330.958 58.4045V48.9258C330.958 48.7601 330.824 48.6258 330.658 48.6258H328.775C328.609 48.6258 328.475 48.4915 328.475 48.3258V45.9153C328.475 45.7496 328.609 45.6153 328.775 45.6153H330.724C330.89 45.6153 331.024 45.4809 331.024 45.3153V41.5522C331.024 41.3865 331.159 41.2522 331.324 41.2522H334.449C334.615 41.2522 334.749 41.3865 334.749 41.5522V45.3153C334.749 45.4809 334.884 45.6153 335.049 45.6153H337.088C337.253 45.6153 337.388 45.7496 337.388 45.9153V48.3258C337.388 48.4915 337.253 48.6258 337.088 48.6258H335.116C334.95 48.6258 334.816 48.7601 334.816 48.9258V58.4045C334.816 58.5702 334.681 58.7045 334.516 58.7045H331.258Z" fill="#201B67"/>
<path d="M341.887 58.7045C341.721 58.7045 341.587 58.5702 341.587 58.4045V45.9153C341.587 45.7496 341.721 45.6153 341.887 45.6153H345.145C345.311 45.6153 345.445 45.7496 345.445 45.9153V58.4045C345.445 58.5702 345.311 58.7045 345.145 58.7045H341.887Z" fill="#201B67"/>
<path d="M357.08 59.1408C355.765 59.1408 354.56 58.8281 353.466 58.2027C352.373 57.5774 351.5 56.7338 350.85 55.6722C350.215 54.6105 349.897 53.4397 349.897 52.1599C349.897 50.8655 350.215 49.6947 350.85 48.6476C351.5 47.5859 352.373 46.7424 353.466 46.117C354.56 45.4916 355.765 45.179 357.08 45.179C357.997 45.179 358.862 45.3317 359.675 45.6371C360.444 45.9076 361.131 46.304 361.735 46.8261C361.819 46.8987 361.852 47.0132 361.824 47.1206L361.048 50.1276C360.981 50.3833 360.63 50.4414 360.461 50.2386C360.159 49.8763 359.801 49.5495 359.386 49.2584C358.78 48.8076 358.063 48.5822 357.236 48.5822C356.541 48.5822 355.92 48.7421 355.373 49.0621C354.826 49.3821 354.398 49.8111 354.087 50.3492C353.777 50.8873 353.622 51.4909 353.622 52.1599C353.622 52.8143 353.777 53.4179 354.087 53.9706C354.398 54.5087 354.826 54.9377 355.373 55.2577C355.92 55.5776 356.541 55.7376 357.236 55.7376C358.063 55.7376 358.78 55.5195 359.386 55.0831C359.801 54.7819 360.16 54.4482 360.462 54.0821C360.631 53.8785 360.981 53.9365 361.048 54.1922L361.824 57.1992C361.852 57.3066 361.819 57.421 361.735 57.4937C361.131 58.0168 360.444 58.4204 359.675 58.7045C358.862 58.9954 357.997 59.1408 357.08 59.1408Z" fill="#201B67"/>
<path d="M346.9 40.15C346.9 42.0278 345.378 43.55 343.5 43.55C341.622 43.55 340.1 42.0278 340.1 40.15C340.1 38.2722 341.622 36.75 343.5 36.75C345.378 36.75 346.9 38.2722 346.9 40.15Z" fill="url(#paint2_linear_2180_10039)"/>
<path d="M453.3 42.8478C453.134 42.8478 453 42.7134 453 42.5478V39.6102C453 39.4445 453.134 39.3102 453.3 39.3102H466.335C466.5 39.3102 466.635 39.4445 466.635 39.6102V42.5478C466.635 42.7134 466.5 42.8478 466.335 42.8478H462.143C461.977 42.8478 461.843 42.9821 461.843 43.1478V58.6633C461.843 58.829 461.709 58.9633 461.543 58.9633H458.092C457.926 58.9633 457.792 58.8289 457.792 58.6633V43.1478C457.792 42.9821 457.657 42.8478 457.492 42.8478H453.3Z" fill="#201B67"/>
<path d="M474.751 59.4C473.458 59.4 472.275 59.087 471.2 58.461C470.126 57.835 469.269 56.9907 468.63 55.928C468.006 54.8652 467.694 53.6933 467.694 52.4122C467.694 51.1166 468.006 49.9447 468.63 48.8965C469.269 47.8338 470.126 46.9895 471.2 46.3635C472.275 45.7375 473.458 45.4245 474.751 45.4245C476.057 45.4245 477.241 45.7375 478.301 46.3635C479.375 46.9895 480.225 47.8338 480.849 48.8965C481.488 49.9447 481.807 51.1166 481.807 52.4122C481.807 53.6933 481.488 54.8652 480.849 55.928C480.225 56.9907 479.375 57.835 478.301 58.461C477.241 59.087 476.057 59.4 474.751 59.4ZM474.751 55.9935C475.404 55.9935 475.992 55.8333 476.515 55.5131C477.052 55.1928 477.473 54.7633 477.778 54.2247C478.097 53.6715 478.257 53.0673 478.257 52.4122C478.257 51.7426 478.097 51.1384 477.778 50.5998C477.473 50.0612 477.052 49.6317 476.515 49.3114C475.992 48.9912 475.404 48.831 474.751 48.831C474.097 48.831 473.502 48.9912 472.965 49.3114C472.442 49.6317 472.021 50.0612 471.701 50.5998C471.396 51.1384 471.244 51.7426 471.244 52.4122C471.244 53.0673 471.396 53.6715 471.701 54.2247C472.021 54.7633 472.442 55.1928 472.965 55.5131C473.502 55.8333 474.097 55.9935 474.751 55.9935Z" fill="#201B67"/>
<path d="M492.393 59.4C491.1 59.4 489.917 59.087 488.842 58.461C487.768 57.835 486.911 56.9907 486.272 55.928C485.648 54.8652 485.336 53.6933 485.336 52.4122C485.336 51.1166 485.648 49.9447 486.272 48.8965C486.911 47.8338 487.768 46.9895 488.842 46.3635C489.917 45.7375 491.1 45.4245 492.393 45.4245C493.7 45.4245 494.883 45.7375 495.943 46.3635C497.017 46.9895 497.867 47.8338 498.491 48.8965C499.13 49.9447 499.45 51.1166 499.45 52.4122C499.45 53.6933 499.13 54.8652 498.491 55.928C497.867 56.9907 497.017 57.835 495.943 58.461C494.883 59.087 493.7 59.4 492.393 59.4ZM492.393 55.9935C493.046 55.9935 493.634 55.8333 494.157 55.5131C494.694 55.1928 495.115 54.7633 495.42 54.2247C495.74 53.6715 495.899 53.0673 495.899 52.4122C495.899 51.7426 495.74 51.1384 495.42 50.5998C495.115 50.0612 494.694 49.6317 494.157 49.3114C493.634 48.9912 493.046 48.831 492.393 48.831C491.739 48.831 491.144 48.9912 490.607 49.3114C490.084 49.6317 489.663 50.0612 489.343 50.5998C489.039 51.1384 488.886 51.7426 488.886 52.4122C488.886 53.0673 489.039 53.6715 489.343 54.2247C489.663 54.7633 490.084 55.1928 490.607 55.5131C491.144 55.8333 491.739 55.9935 492.393 55.9935Z" fill="#201B67"/>
<path d="M503.975 58.9633C503.809 58.9633 503.675 58.8289 503.675 58.6633V38.3C503.675 38.1343 503.809 38 503.975 38H507.165C507.33 38 507.465 38.1343 507.465 38.3V58.6633C507.465 58.829 507.33 58.9633 507.165 58.9633H503.975Z" fill="#201B67"/>
<path d="M521.688 58.9633C521.592 58.9633 521.502 58.917 521.445 58.8389L516.457 51.9335C516.381 51.8283 516.381 51.6862 516.457 51.5813L520.53 45.9847C520.587 45.9071 520.677 45.8612 520.773 45.8612H524.089C524.337 45.8612 524.478 46.145 524.328 46.3426L520.603 51.2512C520.523 51.357 520.522 51.503 520.6 51.6101L525.649 58.4857C525.795 58.6838 525.653 58.9633 525.408 58.9633H521.688ZM513.145 58.9633C512.979 58.9633 512.845 58.8289 512.845 58.6633V38.3C512.845 38.1343 512.979 38 513.145 38H516.334C516.5 38 516.634 38.1343 516.634 38.3V58.6633C516.634 58.829 516.5 58.9633 516.334 58.9633H513.145Z" fill="#201B67"/>
<path d="M529.213 58.9633C529.047 58.9633 528.913 58.8289 528.913 58.6633V46.1612C528.913 45.9955 529.047 45.8612 529.213 45.8612H532.403C532.569 45.8612 532.703 45.9955 532.703 46.1612V58.6633C532.703 58.829 532.569 58.9633 532.403 58.9633H529.213ZM530.808 43.9614C530.242 43.9614 529.763 43.7649 529.37 43.3718C528.978 42.9788 528.782 42.4984 528.782 41.9306C528.782 41.3483 528.978 40.8679 529.37 40.4894C529.763 40.0963 530.242 39.8998 530.808 39.8998C531.389 39.8998 531.868 40.0963 532.246 40.4894C532.638 40.8679 532.834 41.3483 532.834 41.9306C532.834 42.4984 532.638 42.9788 532.246 43.3718C531.868 43.7649 531.389 43.9614 530.808 43.9614Z" fill="#201B67"/>
<path d="M539.984 58.9633C539.818 58.9633 539.684 58.8289 539.684 58.6633V49.1747C539.684 49.009 539.549 48.8747 539.384 48.8747H537.544C537.379 48.8747 537.244 48.7404 537.244 48.5747V46.1612C537.244 45.9955 537.379 45.8612 537.544 45.8612H539.449C539.615 45.8612 539.749 45.7269 539.749 45.5612V41.7939C539.749 41.6282 539.883 41.4939 540.049 41.4939H543.108C543.274 41.4939 543.408 41.6282 543.408 41.7939V45.5612C543.408 45.7269 543.542 45.8612 543.708 45.8612H545.7C545.866 45.8612 546 45.9955 546 46.1612V48.5747C546 48.7404 545.866 48.8747 545.7 48.8747H543.773C543.608 48.8747 543.473 49.009 543.473 49.1747V58.6633C543.473 58.8289 543.339 58.9633 543.173 58.9633H539.984Z" fill="#201B67"/>
<defs>
<linearGradient id="paint0_linear_2180_10039" x1="213.107" y1="36.8832" x2="181.986" y2="65.7447" gradientUnits="userSpaceOnUse">
<stop stop-color="#3000CC"/>
<stop offset="1" stop-color="#B8AEFF"/>
</linearGradient>
<linearGradient id="paint1_linear_2180_10039" x1="213.107" y1="36.8832" x2="181.986" y2="65.7447" gradientUnits="userSpaceOnUse">
<stop stop-color="#3000CC"/>
<stop offset="1" stop-color="#B8AEFF"/>
</linearGradient>
<linearGradient id="paint2_linear_2180_10039" x1="340.458" y1="37.6724" x2="346.336" y2="43.124" gradientUnits="userSpaceOnUse">
<stop stop-color="#3000CC"/>
<stop offset="1" stop-color="#B8AEFF"/>
</linearGradient>
</defs>
</svg>
