<svg width="28" height="28" viewBox="0 0 28 28" fill="none" xmlns="http://www.w3.org/2000/svg">
<path d="M19.2502 7.4375C19.7144 7.4375 20.1595 7.62187 20.4877 7.95006C20.8159 8.27825 21.0002 8.72337 21.0002 9.1875V16.6478C21.0001 16.9202 21.0636 17.189 21.1857 17.4326L22.1202 19.2937C22.1877 19.4276 22.2196 19.5766 22.213 19.7263C22.2063 19.8761 22.1613 20.0216 22.0823 20.149C22.0032 20.2763 21.8928 20.3812 21.7615 20.4537C21.6303 20.5261 21.4826 20.5635 21.3327 20.5625H6.66773C6.51784 20.5635 6.37018 20.5261 6.23893 20.4537C6.10768 20.3812 5.99724 20.2763 5.91819 20.149C5.83913 20.0216 5.79413 19.8761 5.78748 19.7263C5.78084 19.5766 5.81277 19.4276 5.88023 19.2937L6.81473 17.4326C6.93683 17.189 7.00035 16.9202 7.00023 16.6478V9.1875C7.00023 8.72337 7.18461 8.27825 7.5128 7.95006C7.84098 7.62187 8.2861 7.4375 8.75023 7.4375H19.2502Z" stroke="currentColor" stroke-width="1.75" stroke-linecap="round" stroke-linejoin="round"/>
<path d="M21.0476 17.0508H6.95312" stroke="currentColor" stroke-width="1.75" stroke-linecap="round" stroke-linejoin="round"/>
</svg>
