<svg width="137" height="33" viewBox="0 0 137 33" fill="none" xmlns="http://www.w3.org/2000/svg">
<path fill-rule="evenodd" clip-rule="evenodd" d="M66.9705 0.0761332C59.6232 0.437649 53.3168 1.44422 47.5502 3.17594C44.5862 4.06606 41.0352 5.34066 38.8421 6.30161C37.4259 6.92219 34.404 8.45045 33.0124 9.25C28.6086 11.7799 24.6779 14.859 21.2791 18.4409C20.5707 19.1875 19.9134 19.9089 19.8183 20.0441L19.6456 20.2899L19.8981 20.0885C22.7495 17.8138 26.6653 15.2828 29.9128 13.6155C35.2897 10.8548 42.0499 8.56034 48.0239 7.46829C49.5426 7.19072 52.2746 6.79386 53.8172 6.62677C58.6389 6.1045 65.1704 6.04919 70.5412 6.48503C75.0305 6.84939 81.4901 7.77297 85.3706 8.6053C86.9962 8.95399 91.8905 10.1413 93.4593 10.5676C96.798 11.4748 101.507 12.9942 104.062 13.9888C105.004 14.3554 105.84 14.6606 105.92 14.6671C106.056 14.678 106.069 14.6211 106.109 13.8408C106.167 12.7174 106.351 12.2041 107.068 11.1633C107.819 10.0731 109.155 8.97068 111.054 7.87505L111.816 7.43557L111.601 7.35198C111.482 7.30593 110.402 6.94187 109.2 6.54289C104.198 4.88332 98.0957 3.30915 92.184 2.15348C87.9399 1.32376 84.7706 0.852869 80.5975 0.431818C76.8392 0.0526673 70.7028 -0.107503 66.9705 0.0761332ZM134.741 9.51291C134.741 9.60772 134.344 11.1543 134.187 11.6728C134.151 11.7906 134.238 11.8004 135.316 11.8004H136.484L136.556 11.5271C136.704 10.9641 137 9.62047 137 9.51015C137 9.4109 136.849 9.39559 135.87 9.39559C134.881 9.39559 134.741 9.41009 134.741 9.51291ZM131.426 11.8914C131.385 12.011 130.879 14.3119 130.879 14.3772C130.879 14.4049 131.379 14.4185 131.99 14.4074L133.101 14.3873L133.198 14.0958C133.343 13.6587 133.637 12.5393 133.71 12.1465L133.775 11.8004H132.616C131.754 11.8004 131.449 11.8237 131.426 11.8914ZM128.143 12.5119C128.075 12.56 127.527 14.6369 127.527 14.8475C127.527 14.9422 128.792 14.9688 129.462 14.8883L129.83 14.844L130.064 13.7412C130.193 13.1346 130.298 12.5974 130.297 12.5473C130.296 12.4787 130.039 12.4565 129.257 12.4573C128.686 12.4579 128.185 12.4825 128.143 12.5119ZM68.4622 14.4055C68.0836 14.9766 65.4073 18.5158 64.6737 19.4154C63.4254 20.9465 57.5215 28.6003 56.3547 30.2004C55.6324 31.1909 54.6547 32.6044 54.6555 32.657C54.6562 32.7042 58.734 32.7228 59.1607 32.6776L59.6218 32.6288L60.1078 31.9611C60.375 31.5939 61.1497 30.5557 61.8292 29.6539C63.3419 27.6465 63.7983 27.0547 67.0759 22.8519C68.04 21.6157 69.0398 20.3273 69.2978 19.9887C69.6064 19.5838 69.784 19.4052 69.8168 19.4671C69.8443 19.5188 69.8891 19.7743 69.9165 20.0348C69.9438 20.2953 70.0647 21.1479 70.185 21.9295C70.3053 22.711 70.6977 25.4 71.0569 27.905C71.4162 30.4099 71.7286 32.5188 71.7514 32.5914C71.7903 32.7159 71.93 32.722 74.2216 32.7007C75.5575 32.6882 76.6655 32.6616 76.6841 32.6416C76.7025 32.6216 76.6721 32.2772 76.6164 31.8764C76.5608 31.4757 76.3687 30.082 76.1896 28.7794C76.0105 27.4768 75.6352 24.8207 75.3556 22.8768C75.0761 20.933 74.6975 18.2604 74.5145 16.9378C74.3314 15.6152 74.1631 14.4101 74.1404 14.2598L74.0991 13.9865H71.4196H68.74L68.4622 14.4055ZM85.482 14.7318C85.3562 15.1436 85.0254 16.1785 84.7471 17.0317C84.4688 17.8848 84.241 18.6063 84.241 18.6348C84.241 18.6634 87.0757 18.6766 90.5402 18.6644C97.4792 18.6399 97.1525 18.6199 97.3931 19.0851C97.6342 19.5513 97.4182 20.8739 96.9501 21.7976C96.6839 22.3231 96.17 22.8422 95.6924 23.068L95.2838 23.2614L88.9791 23.2474L82.6743 23.2333L82.4633 24.0206C82.3473 24.4536 81.9809 25.6441 81.6492 26.6661C81.1409 28.2323 80.1583 31.3344 79.8372 32.3865L79.7482 32.678L81.8671 32.6943C83.0325 32.7032 84.104 32.6929 84.2484 32.6715L84.5108 32.6325L84.807 31.7079C84.97 31.1994 85.2959 30.1767 85.5315 29.4353L85.9595 28.0871L89.9107 28.0683C94.2783 28.0475 94.2346 28.0433 94.514 28.5018C94.6204 28.6764 94.6491 28.8133 94.6179 28.998C94.5701 29.2815 93.9442 31.4268 93.7153 32.0924C93.6346 32.3268 93.5686 32.5545 93.5687 32.5984C93.5687 32.7038 98.1204 32.71 98.2251 32.6047C98.3243 32.5048 99.5196 28.458 99.6198 27.8824C99.7615 27.0689 99.4907 26.2287 98.87 25.5562C98.7597 25.4367 98.6706 25.3179 98.6719 25.2921C98.6732 25.2663 98.9549 25.032 99.2979 24.7715C100.746 23.6716 100.989 23.2549 102.019 20.1077C102.955 17.2486 103.07 16.802 103.019 16.2231C102.943 15.3578 102.317 14.5382 101.471 14.1975L101.038 14.0229L93.3744 14.0031L85.7108 13.9833L85.482 14.7318ZM110.807 14.0986C109.422 14.3311 107.987 15.0866 106.936 16.1379C105.722 17.3518 105.306 18.1934 104.273 21.5287C102.745 26.4587 102.167 28.6053 102.169 29.3456C102.171 30.4048 102.502 31.3125 103.095 31.8887C103.554 32.3348 104.027 32.5579 104.701 32.6452C105.057 32.6914 108.242 32.7109 113.35 32.6981L121.435 32.678L121.79 31.5485C121.985 30.9273 122.29 29.9582 122.468 29.395C122.645 28.8317 122.79 28.3481 122.79 28.3201C122.79 28.2922 119.65 28.269 115.813 28.2686L108.835 28.2678L108.465 28.0956C107.775 27.7744 107.566 27.2967 107.704 26.356C107.859 25.2951 108.93 21.8987 109.456 20.8C109.77 20.1447 110.337 19.4656 110.791 19.2007C110.958 19.1035 111.307 18.9906 111.568 18.9498C111.849 18.9059 114.806 18.8604 118.855 18.8378L125.668 18.7998L125.768 18.5611C125.886 18.2768 126.542 16.135 126.894 14.8792L127.145 13.9865L119.265 13.994C113.067 13.9998 111.262 14.0221 110.807 14.0986ZM130.855 15.5715C130.837 15.6015 130.799 15.7737 130.77 15.954C130.742 16.1344 130.623 16.6731 130.508 17.1512C130.392 17.6293 130.309 18.0314 130.322 18.0449C130.384 18.1072 131.972 18.1429 132.262 18.0885L132.588 18.0274L132.822 17.0454C132.951 16.5052 133.077 15.9404 133.103 15.7901L133.151 15.5168H132.019C131.397 15.5168 130.873 15.5414 130.855 15.5715ZM127.854 16.1576L127.49 16.179L127.207 17.36C127.052 18.0095 126.909 18.582 126.89 18.6321C126.863 18.7025 127.111 18.7231 127.984 18.7231C128.801 18.7231 129.131 18.698 129.181 18.6321C129.219 18.582 129.36 18.0491 129.493 17.4479C129.627 16.8467 129.749 16.3056 129.764 16.2455C129.788 16.1533 129.669 16.1362 129.006 16.1362C128.573 16.1362 128.055 16.1458 127.854 16.1576ZM33.5938 20.4553L32.0983 20.4749L31.6144 21.9306C31.3483 22.7311 31.1551 23.4014 31.1852 23.42C31.2152 23.4386 33.7203 23.4511 36.7519 23.4478C40.7502 23.4436 42.2814 23.4194 42.3275 23.3598C42.3768 23.296 42.8899 21.7357 43.2412 20.5814C43.2852 20.4368 43.2517 20.4356 39.1874 20.4356C36.9334 20.4356 34.4163 20.4444 33.5938 20.4553ZM3.40777 21.9473C3.13756 22.7612 2.91647 23.4427 2.91647 23.4617C2.91647 23.4807 4.9498 23.4873 7.43493 23.4764C12.4663 23.4543 12.2995 23.4392 12.4627 23.9337C12.5711 24.2623 12.5248 24.5336 12.1201 25.9374C11.5649 27.8637 11.1982 28.7326 10.7771 29.1207C10.3944 29.4734 10.4446 29.4697 5.57205 29.4931L0.976991 29.5151L0.487659 31.0601C0.218545 31.9099 -0.000944274 32.627 3.05507e-06 32.6538C0.000877513 32.6805 2.42006 32.6958 5.37588 32.6877C11.3124 32.6715 11.0634 32.6898 12.0441 32.195C12.6373 31.8957 13.4618 31.0749 13.7571 30.4898C13.879 30.2481 14.0786 29.7399 14.2007 29.3603C14.7713 27.5855 15.9027 23.7904 16.0052 23.3068C16.267 22.072 15.9174 21.2457 14.9038 20.7034L14.5395 20.5085L9.21927 20.488L3.89906 20.4676L3.40777 21.9473ZM23.5344 21.3283C23.2028 21.7992 22.5005 22.742 21.9739 23.4234C18.8734 27.4346 15.098 32.5332 15.1735 32.6071C15.1855 32.6189 15.864 32.6396 16.6812 32.6533L18.167 32.678L18.2988 32.4959C18.9193 31.6379 20.5041 29.5263 20.9363 28.9816C21.2312 28.6099 21.7949 27.8794 22.1889 27.3584C23.7496 25.2948 24.7294 24.0428 24.7834 24.0428C24.8147 24.0428 24.8623 24.2314 24.8891 24.4618C24.9159 24.6922 25.0313 25.5202 25.1455 26.3018C25.4128 28.1319 25.6876 30.1054 25.8356 31.257C25.9 31.758 25.9707 32.2745 25.9928 32.4048L26.033 32.6416H27.5916H29.1502L29.1496 32.4776C29.1483 32.1103 28.7402 29.071 27.9409 23.478L27.5114 20.4721H25.8244H24.1375L23.5344 21.3283ZM47.79 20.8546C47.6499 21.0651 47.0161 21.9094 46.3814 22.7311C45.7468 23.5527 44.9151 24.6348 44.5334 25.1358C44.1517 25.6368 43.6387 26.2927 43.3933 26.5933C42.2591 27.9826 38.9879 32.4448 38.9879 32.6024C38.9879 32.624 39.7245 32.6416 40.6249 32.6416C42.2486 32.6416 42.2626 32.6403 42.3477 32.4776C42.558 32.0758 43.0528 31.3827 44.4145 29.5817C45.2173 28.52 46.0382 27.4329 46.2386 27.166C46.8252 26.3845 48.276 24.5416 48.5538 24.2249L48.8095 23.9335L48.8594 24.4436C48.9123 24.9847 49.0381 26.0013 49.4458 29.1802C49.8606 32.4142 49.8915 32.6393 49.9239 32.6591C49.941 32.6695 50.6617 32.6686 51.5255 32.6571L53.096 32.6362L53.0331 32.0377C52.9201 30.9623 51.7901 22.7302 51.5129 20.9639L51.4357 20.4721H49.7401H48.0445L47.79 20.8546ZM1.9926 26.4111L1.47157 27.9778H3.0179H4.56424L5.02413 26.5022C5.27706 25.6905 5.49932 24.9856 5.51798 24.9354C5.5445 24.8644 5.21767 24.8443 4.03278 24.8443H2.51356L1.9926 26.4111ZM34.8675 24.9537C34.5567 26.0416 33.7704 28.6821 33.4787 29.6174C33.2662 30.2988 32.9954 31.2006 32.8769 31.6214C32.7584 32.0422 32.6383 32.4446 32.61 32.5156C32.5615 32.6369 32.6486 32.6434 34.0728 32.6249L35.5873 32.6052L35.679 32.3137C36.2573 30.4756 37.8172 25.1302 37.8207 24.9748C37.8226 24.8911 34.8914 24.8701 34.8675 24.9537ZM64.5845 28.4664C64.4572 28.491 64.3948 28.5893 64.3017 28.9119C64.2358 29.1396 63.9293 29.9654 63.6203 30.7469C63.1106 32.0361 62.9752 32.4178 62.9657 32.591C62.961 32.6789 67.6878 32.6822 67.7757 32.5942C67.8441 32.5259 69.1566 28.6133 69.1566 28.4779C69.1566 28.4159 64.9016 28.4053 64.5845 28.4664Z" fill="#1E1B4A"/>
</svg>
