<svg width="28" height="28" viewBox="0 0 28 28" fill="none" xmlns="http://www.w3.org/2000/svg">
<mask id="mask0_2155_7669" style="mask-type:alpha" maskUnits="userSpaceOnUse" x="0" y="0" width="28" height="28">
<rect width="28" height="28" fill="#D9D9D9"/>
</mask>
<g mask="url(#mask0_2155_7669)">
<path d="M14.0584 23.3327C11.4529 23.3327 9.23621 22.4285 7.40843 20.6202C5.58065 18.8118 4.66676 16.6049 4.66676 13.9993V13.7952L3.61676 14.8452C3.40288 15.0591 3.13065 15.166 2.8001 15.166C2.46954 15.166 2.19732 15.0591 1.98343 14.8452C1.76954 14.6313 1.6626 14.3591 1.6626 14.0285C1.6626 13.698 1.76954 13.4257 1.98343 13.2118L5.01676 10.1785C5.2501 9.94518 5.52232 9.82852 5.83343 9.82852C6.14454 9.82852 6.41676 9.94518 6.6501 10.1785L9.68343 13.2118C9.89732 13.4257 10.0043 13.698 10.0043 14.0285C10.0043 14.3591 9.89732 14.6313 9.68343 14.8452C9.46954 15.0591 9.19732 15.166 8.86676 15.166C8.53621 15.166 8.26399 15.0591 8.0501 14.8452L7.0001 13.7952V13.9993C7.0001 15.9438 7.68551 17.5966 9.05635 18.9577C10.4272 20.3188 12.0945 20.9993 14.0584 20.9993C14.3695 20.9993 14.6758 20.9799 14.9772 20.941C15.2786 20.9021 15.5751 20.8341 15.8668 20.7368C16.1973 20.6396 16.5084 20.6493 16.8001 20.766C17.0918 20.8827 17.3154 21.0868 17.4709 21.3785C17.6265 21.6896 17.6411 21.9959 17.5147 22.2973C17.3883 22.5987 17.1598 22.798 16.8293 22.8952C16.382 23.0507 15.9251 23.1625 15.4584 23.2306C14.9918 23.2987 14.5251 23.3327 14.0584 23.3327ZM13.9418 6.99935C13.6307 6.99935 13.3244 7.01879 13.023 7.05768C12.7216 7.09657 12.4251 7.16463 12.1334 7.26185C11.8029 7.35907 11.4869 7.34935 11.1855 7.23268C10.8841 7.11602 10.6557 6.91185 10.5001 6.62018C10.3445 6.32852 10.33 6.03199 10.4563 5.7306C10.5827 5.42921 10.8015 5.2299 11.1126 5.13268C11.5793 4.97713 12.0459 4.86046 12.5126 4.78268C12.9793 4.7049 13.4557 4.66602 13.9418 4.66602C16.5473 4.66602 18.764 5.57018 20.5918 7.37852C22.4195 9.18685 23.3334 11.3938 23.3334 13.9993V14.2035L24.3834 13.1535C24.5973 12.9396 24.8695 12.8327 25.2001 12.8327C25.5307 12.8327 25.8029 12.9396 26.0168 13.1535C26.2307 13.3674 26.3376 13.6396 26.3376 13.9702C26.3376 14.3007 26.2307 14.573 26.0168 14.7868L22.9834 17.8202C22.7501 18.0535 22.4779 18.1702 22.1668 18.1702C21.8557 18.1702 21.5834 18.0535 21.3501 17.8202L18.3168 14.7868C18.1029 14.573 17.9959 14.3007 17.9959 13.9702C17.9959 13.6396 18.1029 13.3674 18.3168 13.1535C18.5307 12.9396 18.8029 12.8327 19.1334 12.8327C19.464 12.8327 19.7362 12.9396 19.9501 13.1535L21.0001 14.2035V13.9993C21.0001 12.0549 20.3147 10.4021 18.9438 9.04102C17.573 7.6799 15.9057 6.99935 13.9418 6.99935Z" fill="#1C1B1F"/>
</g>
</svg>
