<svg width="14" height="16" viewBox="0 0 14 16" fill="none" xmlns="http://www.w3.org/2000/svg">
<path d="M7.60833 14.9187C7.425 14.7354 7.33333 14.5215 7.33333 14.2771C7.33333 14.0326 7.425 13.8187 7.60833 13.6354L10.2438 11H1.83333C1.32917 11 0.89757 10.8205 0.538542 10.4615C0.179514 10.1024 0 9.67083 0 9.16667V0.916667C0 0.656944 0.0878472 0.439236 0.263542 0.263542C0.439236 0.0878472 0.656944 0 0.916667 0C1.17639 0 1.3941 0.0878472 1.56979 0.263542C1.74549 0.439236 1.83333 0.656944 1.83333 0.916667V9.16667H10.2438L7.58542 6.50833C7.40208 6.325 7.31424 6.11111 7.32188 5.86667C7.32951 5.62222 7.41736 5.40833 7.58542 5.225C7.76875 5.04167 7.98264 4.94618 8.22708 4.93854C8.47153 4.9309 8.68542 5.01875 8.86875 5.20208L13.1083 9.44167C13.2 9.53333 13.2649 9.63264 13.3031 9.73958C13.3413 9.84653 13.3604 9.96111 13.3604 10.0833C13.3604 10.2056 13.3413 10.3201 13.3031 10.4271C13.2649 10.534 13.2 10.6333 13.1083 10.725L8.91458 14.9187C8.73125 15.1021 8.51354 15.1938 8.26146 15.1938C8.00937 15.1938 7.79167 15.1021 7.60833 14.9187Z" fill="#1C1B1F"/>
</svg>
