<svg width="28" height="28" viewBox="0 0 28 28" fill="none" xmlns="http://www.w3.org/2000/svg">
<mask id="mask0_2155_7778" style="mask-type:alpha" maskUnits="userSpaceOnUse" x="0" y="0" width="28" height="28">
<rect width="28" height="28" fill="#D9D9D9"/>
</mask>
<g mask="url(#mask0_2155_7778)">
<path d="M17.4998 23.3327C14.8943 23.3327 12.6873 22.4285 10.879 20.6202C9.07067 18.8118 8.1665 16.6049 8.1665 13.9993C8.1665 11.4132 9.07067 9.21115 10.879 7.3931C12.6873 5.57504 14.8943 4.66602 17.4998 4.66602C20.0859 4.66602 22.288 5.57504 24.1061 7.3931C25.9241 9.21115 26.8332 11.4132 26.8332 13.9993C26.8332 16.6049 25.9241 18.8118 24.1061 20.6202C22.288 22.4285 20.0859 23.3327 17.4998 23.3327ZM17.4998 20.9993C19.4443 20.9993 21.0971 20.3188 22.4582 18.9577C23.8193 17.5966 24.4998 15.9438 24.4998 13.9993C24.4998 12.0549 23.8193 10.4021 22.4582 9.04102C21.0971 7.6799 19.4443 6.99935 17.4998 6.99935C15.5554 6.99935 13.9026 7.6799 12.5415 9.04102C11.1804 10.4021 10.4998 12.0549 10.4998 13.9993C10.4998 15.9438 11.1804 17.5966 12.5415 18.9577C13.9026 20.3188 15.5554 20.9993 17.4998 20.9993ZM18.6665 13.5327V10.4993C18.6665 10.1688 18.5547 9.89171 18.3311 9.6681C18.1075 9.44449 17.8304 9.33268 17.4998 9.33268C17.1693 9.33268 16.8922 9.44449 16.6686 9.6681C16.445 9.89171 16.3332 10.1688 16.3332 10.4993V14.0285C16.3332 14.1841 16.3672 14.3348 16.4353 14.4806C16.5033 14.6264 16.5859 14.748 16.6832 14.8452L19.3373 17.4993C19.5707 17.7327 19.8478 17.8493 20.1686 17.8493C20.4894 17.8493 20.7665 17.7327 20.9998 17.4993C21.2332 17.266 21.3498 16.9889 21.3498 16.6681C21.3498 16.3473 21.2332 16.0702 20.9998 15.8368L18.6665 13.5327ZM3.49984 10.4993C3.16928 10.4993 2.8922 10.3875 2.66859 10.1639C2.44498 9.94032 2.33317 9.66324 2.33317 9.33268C2.33317 9.00213 2.44498 8.72504 2.66859 8.50143C2.8922 8.27782 3.16928 8.16602 3.49984 8.16602H5.83317C6.16373 8.16602 6.44081 8.27782 6.66442 8.50143C6.88803 8.72504 6.99984 9.00213 6.99984 9.33268C6.99984 9.66324 6.88803 9.94032 6.66442 10.1639C6.44081 10.3875 6.16373 10.4993 5.83317 10.4993H3.49984ZM2.33317 15.166C2.00261 15.166 1.72553 15.0542 1.50192 14.8306C1.27831 14.607 1.1665 14.3299 1.1665 13.9993C1.1665 13.6688 1.27831 13.3917 1.50192 13.1681C1.72553 12.9445 2.00261 12.8327 2.33317 12.8327H5.83317C6.16373 12.8327 6.44081 12.9445 6.66442 13.1681C6.88803 13.3917 6.99984 13.6688 6.99984 13.9993C6.99984 14.3299 6.88803 14.607 6.66442 14.8306C6.44081 15.0542 6.16373 15.166 5.83317 15.166H2.33317ZM3.49984 19.8327C3.16928 19.8327 2.8922 19.7209 2.66859 19.4973C2.44498 19.2737 2.33317 18.9966 2.33317 18.666C2.33317 18.3355 2.44498 18.0584 2.66859 17.8348C2.8922 17.6112 3.16928 17.4993 3.49984 17.4993H5.83317C6.16373 17.4993 6.44081 17.6112 6.66442 17.8348C6.88803 18.0584 6.99984 18.3355 6.99984 18.666C6.99984 18.9966 6.88803 19.2737 6.66442 19.4973C6.44081 19.7209 6.16373 19.8327 5.83317 19.8327H3.49984Z" fill="#1C1B1F"/>
</g>
</svg>
