<svg width="28" height="28" viewBox="0 0 28 28" fill="none" xmlns="http://www.w3.org/2000/svg">
<mask id="mask0_2155_7770" style="mask-type:alpha" maskUnits="userSpaceOnUse" x="0" y="0" width="28" height="28">
<rect width="28" height="28" fill="#D9D9D9"/>
</mask>
<g mask="url(#mask0_2155_7770)">
<path d="M14 25.3169C13.8056 25.3169 13.6111 25.2926 13.4167 25.244C13.2222 25.1954 13.0375 25.1225 12.8625 25.0253L4.69583 20.5044C4.32639 20.2905 4.03472 20.0037 3.82083 19.644C3.60694 19.2843 3.5 18.8905 3.5 18.4628V9.53776C3.5 9.10998 3.60694 8.71623 3.82083 8.35651C4.03472 7.99679 4.32639 7.70998 4.69583 7.49609L12.8625 2.97526C13.0375 2.87804 13.2222 2.80512 13.4167 2.75651C13.6111 2.7079 13.8056 2.68359 14 2.68359C14.1944 2.68359 14.3889 2.7079 14.5833 2.75651C14.7778 2.80512 14.9625 2.87804 15.1375 2.97526L23.3042 7.49609C23.6736 7.70998 23.9653 7.99679 24.1792 8.35651C24.3931 8.71623 24.5 9.10998 24.5 9.53776V18.4628C24.5 18.8905 24.3931 19.2843 24.1792 19.644C23.9653 20.0037 23.6736 20.2905 23.3042 20.5044L15.1375 25.0253C14.9625 25.1225 14.7778 25.1954 14.5833 25.244C14.3889 25.2926 14.1944 25.3169 14 25.3169ZM10.6167 10.7919C11.0444 10.3447 11.5451 9.98984 12.1187 9.72734C12.6924 9.46484 13.3194 9.33359 14 9.33359C14.6806 9.33359 15.3076 9.46484 15.8812 9.72734C16.4549 9.98984 16.9556 10.3447 17.3833 10.7919L20.8833 8.83776L14 5.01693L7.11667 8.83776L10.6167 10.7919ZM12.8333 22.3419V18.5211C11.8222 18.2489 10.9861 17.6996 10.325 16.8732C9.66389 16.0468 9.33333 15.0891 9.33333 14.0003C9.33333 13.7864 9.34306 13.5822 9.3625 13.3878C9.38194 13.1933 9.42083 13.0086 9.47917 12.8336L5.83333 10.7919V18.4628L12.8333 22.3419ZM14 16.3336C14.6417 16.3336 15.191 16.1051 15.6479 15.6482C16.1049 15.1912 16.3333 14.6419 16.3333 14.0003C16.3333 13.3586 16.1049 12.8093 15.6479 12.3523C15.191 11.8954 14.6417 11.6669 14 11.6669C13.3583 11.6669 12.809 11.8954 12.3521 12.3523C11.8951 12.8093 11.6667 13.3586 11.6667 14.0003C11.6667 14.6419 11.8951 15.1912 12.3521 15.6482C12.809 16.1051 13.3583 16.3336 14 16.3336ZM15.1667 22.3419L22.1667 18.4628V10.7919L18.5208 12.8336C18.5792 13.028 18.6181 13.2176 18.6375 13.4023C18.6569 13.5871 18.6667 13.7864 18.6667 14.0003C18.6667 15.0891 18.3361 16.0468 17.675 16.8732C17.0139 17.6996 16.1778 18.2489 15.1667 18.5211V22.3419Z" fill="#1C1B1F"/>
</g>
</svg>
